<?xml version="1.0" encoding="UTF-8" standalone="no"?>
<svg
   sodipodi:docname="Panel.svg"
   id="svg8"
   version="1.1"
   viewBox="0 0 60.600287 128.50012"
   height="128.50012mm"
   width="60.600285mm"
   inkscape:version="1.3 (0e150ed6c4, 2023-07-21)"
   inkscape:export-filename="/home/phoracek/code/zlosynth/zlosynth.github.io/v2/panel.png"
   inkscape:export-xdpi="276.80777"
   inkscape:export-ydpi="276.80777"
   xml:space="preserve"
   xmlns:inkscape="http://www.inkscape.org/namespaces/inkscape"
   xmlns:sodipodi="http://sodipodi.sourceforge.net/DTD/sodipodi-0.dtd"
   xmlns="http://www.w3.org/2000/svg"
   xmlns:svg="http://www.w3.org/2000/svg"
   xmlns:rdf="http://www.w3.org/1999/02/22-rdf-syntax-ns#"
   xmlns:cc="http://creativecommons.org/ns#"
   xmlns:dc="http://purl.org/dc/elements/1.1/"><sodipodi:namedview
     id="base"
     pagecolor="#ffffff"
     bordercolor="#666666"
     borderopacity="1.0"
     inkscape:pageopacity="0.0"
     inkscape:pageshadow="2"
     inkscape:zoom="4.8426858"
     inkscape:cx="103.24849"
     inkscape:cy="392.44751"
     inkscape:document-units="mm"
     inkscape:document-rotation="0"
     showgrid="false"
     inkscape:window-width="1916"
     inkscape:window-height="1029"
     inkscape:window-x="0"
     inkscape:window-y="49"
     inkscape:window-maximized="1"
     showguides="false"
     inkscape:guide-bbox="true"
     inkscape:snap-text-baseline="true"
     inkscape:snap-global="false"
     inkscape:pagecheckerboard="0"
     inkscape:lockguides="false"
     fit-margin-top="0"
     fit-margin-left="0"
     fit-margin-right="0"
     fit-margin-bottom="0"
     inkscape:showpageshadow="2"
     inkscape:deskcolor="#d1d1d1"
     inkscape:current-layer="layer7"><inkscape:grid
       type="xygrid"
       id="grid1986"
       originx="-751.73474"
       originy="-148.48624"
       spacingy="1"
       spacingx="1"
       units="mm"
       visible="false" /><sodipodi:guide
       position="-21.420553,127.07123"
       orientation="0,-1"
       id="guide47"
       inkscape:locked="false" /><sodipodi:guide
       position="-30.435612,115.86075"
       orientation="0,-1"
       id="guide61"
       inkscape:locked="false" /><sodipodi:guide
       position="-70.431488,104.04758"
       orientation="0,-1"
       id="guide63"
       inkscape:locked="false" /><sodipodi:guide
       position="-67.672594,92.836476"
       orientation="0,-1"
       id="guide64"
       inkscape:locked="false" /><sodipodi:guide
       position="-70.695895,128.07114"
       orientation="1,0"
       id="guide65"
       inkscape:locked="false" /><sodipodi:guide
       position="-32.743973,127.07684"
       orientation="1,0"
       id="guide66"
       inkscape:locked="false" /><sodipodi:guide
       position="-76.993096,29.80504"
       orientation="1,0"
       id="guide67"
       inkscape:locked="false" /><sodipodi:guide
       position="-76.519153,31.414132"
       orientation="0,-1"
       id="guide68"
       inkscape:locked="false" /><sodipodi:guide
       position="-26.451352,31.527422"
       orientation="1,0"
       id="guide73"
       inkscape:locked="false" /><sodipodi:guide
       position="-68.064862,46.234496"
       orientation="0,-1"
       id="guide74"
       inkscape:locked="false" /><sodipodi:guide
       position="-103.06378,52.854836"
       orientation="0,-1"
       id="guide96"
       inkscape:locked="false" /><sodipodi:guide
       position="-118.16815,52.854836"
       orientation="1,0"
       id="guide97"
       inkscape:locked="false" /><sodipodi:guide
       position="-104.64934,50.900176"
       orientation="1,0"
       id="guide98"
       inkscape:locked="false" /><sodipodi:guide
       position="-101.27066,50.458591"
       orientation="1,0"
       id="guide99"
       inkscape:locked="false" /><sodipodi:guide
       position="-103.2543,51.921426"
       orientation="0,-1"
       id="guide100"
       inkscape:locked="false" /><sodipodi:guide
       position="-102.47943,49.951676"
       orientation="0,-1"
       id="guide101"
       inkscape:locked="false" /><sodipodi:guide
       position="-102.91922,50.936551"
       orientation="1,0"
       id="guide102"
       inkscape:locked="false" /><sodipodi:guide
       position="-103.34288,51.921426"
       orientation="1,0"
       id="guide104"
       inkscape:locked="false" /><sodipodi:guide
       position="-101.69455,49.951676"
       orientation="1,0"
       id="guide105"
       inkscape:locked="false" /><sodipodi:guide
       position="-103.77323,51.922763"
       orientation="1,0"
       id="guide107"
       inkscape:locked="false" /><sodipodi:guide
       position="-102.12785,49.951676"
       orientation="1,0"
       id="guide108"
       inkscape:locked="false" /><sodipodi:guide
       position="-102.91922,50.936551"
       orientation="0,-1"
       id="guide109"
       inkscape:locked="false" /><sodipodi:guide
       position="-102.91922,51.444136"
       orientation="0,-1"
       id="guide110"
       inkscape:locked="false" /><sodipodi:guide
       position="-102.91774,50.453233"
       orientation="0,-1"
       id="guide111"
       inkscape:locked="false" /><sodipodi:guide
       position="-102.49341,50.453233"
       orientation="1,0"
       id="guide112"
       inkscape:locked="false" /><sodipodi:guide
       position="-84.07081,58.320051"
       orientation="0,-1"
       id="guide115"
       inkscape:locked="false" /><sodipodi:guide
       position="-59.370292,60.868196"
       orientation="0,-1"
       id="guide116"
       inkscape:locked="false" /><sodipodi:guide
       position="-57.717052,58.898446"
       orientation="0,-1"
       id="guide117"
       inkscape:locked="false" /><sodipodi:guide
       position="-26.449132,75.738286"
       orientation="0,-1"
       id="guide118"
       inkscape:locked="false" /><sodipodi:guide
       position="-27.554431,75.779476"
       orientation="1,0"
       id="guide119"
       inkscape:locked="false" /></sodipodi:namedview><defs
     id="defs2" /><metadata
     id="metadata5"><rdf:RDF><cc:Work
         rdf:about=""><dc:format>image/svg+xml</dc:format><dc:type
           rdf:resource="http://purl.org/dc/dcmitype/StillImage" /></cc:Work></rdf:RDF></metadata><g
     inkscape:groupmode="layer"
     id="layer7"
     inkscape:label="graphical"
     style="display:inline"
     transform="translate(-198.89648,-39.286984)"><g
       id="path3194-5-9-860"><path
         style="color:#000000;fill:#ff0000;-inkscape-stroke:none"
         d="m 210.19482,56.532337 0.0266,-1.999823"
         id="path243" /><path
         style="color:#000000;fill:#ff00ff;-inkscape-stroke:none"
         d="m 210.12109,54.53125 -0.0254,2 0.19922,0.002 0.0274,-2 z"
         id="path244" /></g><g
       id="path3194-3-6-9-46"><path
         style="color:#000000;fill:#ff0000;-inkscape-stroke:none"
         d="m 209.20821,55.519127 1.99982,0.0266"
         id="path245" /><path
         style="color:#000000;fill:#ff00ff;-inkscape-stroke:none"
         d="m 209.20898,55.419922 -0.002,0.199219 2,0.02734 0.002,-0.201172 z"
         id="path246" /></g><g
       id="path3194-5-9-7-6"><path
         style="color:#000000;fill:#ff0000;-inkscape-stroke:none"
         d="m 229.17743,56.531265 0.0266,-1.999823"
         id="path247" /><path
         style="color:#000000;fill:#ff00ff;-inkscape-stroke:none"
         d="m 229.10352,54.529297 -0.0254,2 0.19922,0.0039 0.0273,-2 z"
         id="path248" /></g><g
       id="path3194-3-6-9-5-0"><path
         style="color:#000000;fill:#ff0000;-inkscape-stroke:none"
         d="m 228.19081,55.518055 1.99983,0.0266"
         id="path249" /><path
         style="color:#000000;fill:#ff00ff;-inkscape-stroke:none"
         d="m 228.19141,55.417969 -0.002,0.199218 2,0.02734 0.002,-0.199219 z"
         id="path250" /></g><g
       id="path3194-5-9-5-7"><path
         style="color:#000000;fill:#ff0000;-inkscape-stroke:none"
         d="m 248.16004,56.531268 0.0266,-1.999823"
         id="path251" /><path
         style="color:#000000;fill:#ff00ff;-inkscape-stroke:none"
         d="m 248.08594,54.529297 -0.0254,2 0.19922,0.0039 0.0273,-2 z"
         id="path252" /></g><g
       id="path3194-3-6-9-6-5"><path
         style="color:#000000;fill:#ff0000;-inkscape-stroke:none"
         d="m 247.17343,55.518058 1.99982,0.0266"
         id="path253" /><path
         style="color:#000000;fill:#ff00ff;-inkscape-stroke:none"
         d="m 247.17383,55.417969 -0.002,0.199218 2,0.02734 0.002,-0.199219 z"
         id="path254" /></g><g
       id="path3194-5-9-9-7"><path
         style="color:#000000;fill:#ff0000;-inkscape-stroke:none"
         d="m 248.16003,79.551211 0.0266,-1.999823"
         id="path255" /><path
         style="color:#000000;fill:#ff00ff;-inkscape-stroke:none"
         d="m 248.08594,77.550781 -0.0254,2 0.19922,0.002 0.0273,-2 z"
         id="path256" /></g><g
       id="path3194-3-6-9-1-8"><path
         style="color:#000000;fill:#ff0000;-inkscape-stroke:none"
         d="m 247.17341,78.538001 1.99983,0.0266"
         id="path257" /><path
         style="color:#000000;fill:#ff00ff;-inkscape-stroke:none"
         d="m 247.17383,78.4375 -0.002,0.201172 2,0.02539 0.002,-0.199218 z"
         id="path258" /></g><g
       id="path3194-5-9-0-3"><path
         style="color:#000000;fill:#ff0000;-inkscape-stroke:none"
         d="m 229.17743,79.551225 0.0266,-1.999823"
         id="path259" /><path
         style="color:#000000;fill:#ff00ff;-inkscape-stroke:none"
         d="m 229.10352,77.550781 -0.0254,2 0.19922,0.002 0.0273,-2 z"
         id="path260" /></g><g
       id="path3194-3-6-9-9-3"><path
         style="color:#000000;fill:#ff0000;-inkscape-stroke:none"
         d="m 228.19082,78.538015 1.99982,0.0266"
         id="path261" /><path
         style="color:#000000;fill:#ff00ff;-inkscape-stroke:none"
         d="m 228.19141,78.4375 -0.002,0.201172 2,0.02539 0.002,-0.199218 z"
         id="path262" /></g><g
       id="path3194-5-9-06-3"><path
         style="color:#000000;fill:#ff0000;-inkscape-stroke:none"
         d="m 210.19483,79.552296 0.0266,-1.999823"
         id="path263" /><path
         style="color:#000000;fill:#ff00ff;-inkscape-stroke:none"
         d="m 210.12109,77.550781 -0.0254,2 0.19922,0.002 0.0274,-1.998047 z"
         id="path264" /></g><g
       id="path3194-3-6-9-2-7"><path
         style="color:#000000;fill:#ff0000;-inkscape-stroke:none"
         d="m 209.20821,78.539086 1.99983,0.0266"
         id="path265" /><path
         style="color:#000000;fill:#ff00ff;-inkscape-stroke:none"
         d="m 209.20898,78.439453 -0.002,0.199219 2,0.02734 0.002,-0.201172 z"
         id="path266" /></g><g
       id="path3194-5-9-8-3"><path
         style="color:#000000;fill:#ff0000;-inkscape-stroke:none"
         d="m 204.32811,100.9378 0.0266,-1.999824"
         id="path267" /><path
         style="color:#000000;fill:#ff00ff;-inkscape-stroke:none"
         d="m 204.25391,98.9375 -0.0254,1.99805 0.19921,0.004 0.0274,-1.999997 z"
         id="path268" /></g><g
       id="path3194-3-6-9-7-7"><path
         style="color:#000000;fill:#ff0000;-inkscape-stroke:none"
         d="m 203.3415,99.924589 1.99982,0.0266"
         id="path269" /><path
         style="color:#000000;fill:#ff00ff;-inkscape-stroke:none"
         d="m 203.34375,99.824219 -0.004,0.201171 2,0.0254 0.002,-0.199218 z"
         id="path270" /></g><g
       id="path3194-5-9-2-7"><path
         style="color:#000000;fill:#ff0000;-inkscape-stroke:none"
         d="m 210.20284,100.87613 0.0266,-1.999821"
         id="path271" /><path
         style="color:#000000;fill:#ff00ff;-inkscape-stroke:none"
         d="m 210.12891,98.875 -0.0254,2 0.19921,0.002 0.0274,-1.999997 z"
         id="path272" /></g><g
       id="path3194-3-6-9-0-4"><path
         style="color:#000000;fill:#ff0000;-inkscape-stroke:none"
         d="m 209.21623,99.862922 1.99982,0.0266"
         id="path273" /><path
         style="color:#000000;fill:#ff00ff;-inkscape-stroke:none"
         d="m 209.2168,99.763672 -0.002,0.199219 2,0.02734 0.002,-0.201172 z"
         id="path274" /></g><g
       id="path3194-5-9-75-9"><path
         style="color:#000000;fill:#ff0000;-inkscape-stroke:none"
         d="m 216.07756,100.93779 0.0266,-1.999826"
         id="path275" /><path
         style="color:#000000;fill:#ff00ff;-inkscape-stroke:none"
         d="m 216.00391,98.9375 -0.0254,1.99805 0.19921,0.004 0.0274,-1.999997 z"
         id="path276" /></g><g
       id="path3194-3-6-9-92-0"><path
         style="color:#000000;fill:#ff0000;-inkscape-stroke:none"
         d="m 215.09095,99.924577 1.99982,0.0266"
         id="path277" /><path
         style="color:#000000;fill:#ff00ff;-inkscape-stroke:none"
         d="m 215.0918,99.824219 -0.002,0.201171 2,0.0254 0.002,-0.199218 z"
         id="path278" /></g><g
       id="path3194-5-9-97-8"><path
         style="color:#000000;fill:#ff0000;-inkscape-stroke:none"
         d="m 221.9262,100.87613 0.0266,-1.999822"
         id="path279" /><path
         style="color:#000000;fill:#ff00ff;-inkscape-stroke:none"
         d="m 221.85352,98.875 -0.0274,2 0.19922,0.002 0.0273,-1.999997 z"
         id="path280" /></g><g
       id="path3194-3-6-9-3-8"><path
         style="color:#000000;fill:#ff0000;-inkscape-stroke:none"
         d="m 220.93959,99.862921 1.99982,0.0266"
         id="path281" /><path
         style="color:#000000;fill:#ff00ff;-inkscape-stroke:none"
         d="m 220.94141,99.763672 -0.004,0.199219 2,0.02734 0.004,-0.201172 z"
         id="path282" /></g><g
       id="path3194-5-9-93-8"><path
         style="color:#000000;fill:#ff0000;-inkscape-stroke:none"
         d="m 227.77484,100.93779 0.0266,-1.999819"
         id="path283" /><path
         style="color:#000000;fill:#ff00ff;-inkscape-stroke:none"
         d="m 227.70117,98.9375 -0.0254,1.99805 0.19922,0.004 0.0273,-1.999997 z"
         id="path284" /></g><g
       id="path3194-3-6-9-19-4"><path
         style="color:#000000;fill:#ff0000;-inkscape-stroke:none"
         d="m 226.78822,99.924584 1.99983,0.0266"
         id="path285" /><path
         style="color:#000000;fill:#ff00ff;-inkscape-stroke:none"
         d="m 226.78906,99.824219 -0.002,0.201171 2,0.0254 0.002,-0.199218 z"
         id="path286" /></g><g
       id="path3194-5-9-78-7"><path
         style="color:#000000;fill:#ff0000;-inkscape-stroke:none"
         d="m 233.62347,100.87613 0.0266,-1.999825"
         id="path287" /><path
         style="color:#000000;fill:#ff00ff;-inkscape-stroke:none"
         d="m 233.55078,98.875 -0.0273,2 0.19922,0.002 0.0273,-1.999997 z"
         id="path288" /></g><g
       id="path3194-3-6-9-4-1"><path
         style="color:#000000;fill:#ff0000;-inkscape-stroke:none"
         d="m 232.63685,99.862918 1.99983,0.0266"
         id="path289" /><path
         style="color:#000000;fill:#ff00ff;-inkscape-stroke:none"
         d="m 232.63867,99.763672 -0.004,0.199219 2,0.02734 0.004,-0.201172 z"
         id="path290" /></g><g
       id="path3194-5-9-03-8"><path
         style="color:#000000;fill:#ff0000;-inkscape-stroke:none"
         d="m 239.4721,100.93779 0.0266,-1.99982"
         id="path291" /><path
         style="color:#000000;fill:#ff00ff;-inkscape-stroke:none"
         d="m 239.39844,98.9375 -0.0254,1.99805 0.19922,0.004 0.0273,-1.999997 z"
         id="path292" /></g><g
       id="path3194-3-6-9-61-0"><path
         style="color:#000000;fill:#ff0000;-inkscape-stroke:none"
         d="m 238.48548,99.924583 1.99983,0.0266"
         id="path293" /><path
         style="color:#000000;fill:#ff00ff;-inkscape-stroke:none"
         d="m 238.48633,99.824219 -0.002,0.201171 2,0.0254 0.002,-0.199218 z"
         id="path294" /></g><g
       id="path3194-5-9-6-7"><path
         style="color:#000000;fill:#ff0000;-inkscape-stroke:none"
         d="m 245.32071,100.87613 0.0266,-1.999828"
         id="path295" /><path
         style="color:#000000;fill:#ff00ff;-inkscape-stroke:none"
         d="m 245.24805,98.875 -0.0274,2 0.19922,0.002 0.0274,-1.999997 z"
         id="path296" /></g><g
       id="path3194-3-6-9-32-9"><path
         style="color:#000000;fill:#ff0000;-inkscape-stroke:none"
         d="m 244.3341,99.862915 1.99982,0.0266"
         id="path297" /><path
         style="color:#000000;fill:#ff00ff;-inkscape-stroke:none"
         d="m 244.33594,99.763672 -0.004,0.199219 2,0.02734 0.004,-0.201172 z"
         id="path298" /></g><g
       id="path3194-5-9-1-3"><path
         style="color:#000000;fill:#ff0000;-inkscape-stroke:none"
         d="m 253.34959,107.86528 0.0266,-1.99983"
         id="path299" /><path
         style="color:#000000;fill:#ff00ff;-inkscape-stroke:none"
         d="m 253.27539,105.86328 -0.0254,2 0.19922,0.004 0.0273,-2 z"
         id="path300" /></g><g
       id="path3194-3-6-9-55-2"><path
         style="color:#000000;fill:#ff0000;-inkscape-stroke:none"
         d="m 252.36297,106.85207 1.99983,0.0266"
         id="path301" /><path
         style="color:#000000;fill:#ff00ff;-inkscape-stroke:none"
         d="m 252.36523,106.75195 -0.004,0.19922 2,0.0273 0.002,-0.19922 z"
         id="path302" /></g><g
       id="path3194-5-9-65-3"><path
         style="color:#000000;fill:#ff0000;-inkscape-stroke:none"
         d="m 253.34958,115.79275 0.0266,-1.99982"
         id="path303" /><path
         style="color:#000000;fill:#ff00ff;-inkscape-stroke:none"
         d="m 253.27539,113.79102 -0.0254,2 0.19922,0.004 0.0273,-2 z"
         id="path304" /></g><g
       id="path3194-3-6-9-69-7"><path
         style="color:#000000;fill:#ff0000;-inkscape-stroke:none"
         d="m 252.36297,114.77954 1.99982,0.0266"
         id="path305" /><path
         style="color:#000000;fill:#ff00ff;-inkscape-stroke:none"
         d="m 252.36523,114.67969 -0.004,0.19922 2,0.0273 0.002,-0.19922 z"
         id="path306" /></g><g
       id="path3194-5-9-4-2"><path
         style="color:#000000;fill:#ff0000;-inkscape-stroke:none"
         d="m 253.34959,123.72024 0.0266,-1.99982"
         id="path307" /><path
         style="color:#000000;fill:#ff00ff;-inkscape-stroke:none"
         d="m 253.27539,121.71875 -0.0254,2 0.19922,0.002 0.0273,-1.99804 z"
         id="path308" /></g><g
       id="path3194-3-6-9-52-2"><path
         style="color:#000000;fill:#ff0000;-inkscape-stroke:none"
         d="m 252.36298,122.70703 1.99982,0.0266"
         id="path309" /><path
         style="color:#000000;fill:#ff00ff;-inkscape-stroke:none"
         d="m 252.36523,122.60742 -0.004,0.19922 2,0.0273 0.002,-0.20117 z"
         id="path310" /></g><g
       id="path3194-5-9-74-2"><path
         style="color:#000000;fill:#ff0000;-inkscape-stroke:none"
         d="m 253.34959,137.36907 0.0266,-1.99982"
         id="path311" /><path
         style="color:#000000;fill:#ff00ff;-inkscape-stroke:none"
         d="m 253.27539,135.36719 -0.0254,2 0.19922,0.004 0.0273,-2 z"
         id="path312" /></g><g
       id="path3194-3-6-9-43-1"><path
         style="color:#000000;fill:#ff0000;-inkscape-stroke:none"
         d="m 252.36298,136.35586 1.99982,0.0266"
         id="path313" /><path
         style="color:#000000;fill:#ff00ff;-inkscape-stroke:none"
         d="m 252.36523,136.25586 -0.004,0.19922 2,0.0273 0.002,-0.19922 z"
         id="path314" /></g><g
       id="path3194-5-9-86-5"><path
         style="color:#000000;fill:#ff0000;-inkscape-stroke:none"
         d="m 244.3443,137.36906 0.0266,-1.99982"
         id="path315" /><path
         style="color:#000000;fill:#ff00ff;-inkscape-stroke:none"
         d="m 244.27148,135.36719 -0.0273,2 0.19922,0.004 0.0273,-2 z"
         id="path316" /></g><g
       id="path3194-3-6-9-8-1"><path
         style="color:#000000;fill:#ff0000;-inkscape-stroke:none"
         d="m 243.35769,136.35585 1.99982,0.0266"
         id="path317" /><path
         style="color:#000000;fill:#ff00ff;-inkscape-stroke:none"
         d="m 243.35937,136.25586 -0.004,0.19922 2,0.0273 0.004,-0.19922 z"
         id="path318" /></g><g
       id="path3194-5-9-43-4"><path
         style="color:#000000;fill:#ff0000;-inkscape-stroke:none"
         d="m 203.91091,152.18993 0.0266,-1.99983"
         id="path319" /><path
         style="color:#000000;fill:#ff00ff;-inkscape-stroke:none"
         d="m 203.83789,150.18945 -0.0273,2 0.20117,0.002 0.0254,-2 z"
         id="path320" /></g><g
       id="path3194-3-6-9-14-1"><path
         style="color:#000000;fill:#ff0000;-inkscape-stroke:none"
         d="m 202.9243,151.17672 1.99982,0.0266"
         id="path321" /><path
         style="color:#000000;fill:#ff00ff;-inkscape-stroke:none"
         d="m 202.92578,151.07617 -0.002,0.20117 1.99804,0.0254 0.004,-0.19921 z"
         id="path322" /></g><g
       id="path3194-5-9-068-1"><path
         style="color:#000000;fill:#ff0000;-inkscape-stroke:none"
         d="m 203.91091,137.36907 0.0266,-1.99982"
         id="path323" /><path
         style="color:#000000;fill:#ff00ff;-inkscape-stroke:none"
         d="m 203.83789,135.36719 -0.0273,2 0.20117,0.004 0.0254,-2 z"
         id="path324" /></g><g
       id="path3194-3-6-9-926-1"><path
         style="color:#000000;fill:#ff0000;-inkscape-stroke:none"
         d="m 202.9243,136.35586 1.99982,0.0266"
         id="path325" /><path
         style="color:#000000;fill:#ff00ff;-inkscape-stroke:none"
         d="m 202.92578,136.25586 -0.002,0.19922 1.99804,0.0273 0.004,-0.19922 z"
         id="path326" /></g><g
       id="path3194-5-9-95-7"><path
         style="color:#000000;fill:#ff0000;-inkscape-stroke:none"
         d="m 214.01926,137.36856 0.0266,-1.99982"
         id="path327" /><path
         style="color:#000000;fill:#ff00ff;-inkscape-stroke:none"
         d="m 213.94531,135.36719 -0.0254,2 0.19922,0.002 0.0273,-2 z"
         id="path328" /></g><g
       id="path3194-3-6-9-04-0"><path
         style="color:#000000;fill:#ff0000;-inkscape-stroke:none"
         d="m 213.03265,136.35535 1.99983,0.0266"
         id="path329" /><path
         style="color:#000000;fill:#ff00ff;-inkscape-stroke:none"
         d="m 213.0332,136.25586 -0.002,0.19922 2,0.0273 0.002,-0.20117 z"
         id="path330" /></g><g
       id="path3194-5-9-17-0"><path
         style="color:#000000;fill:#ff0000;-inkscape-stroke:none"
         d="m 224.12762,137.36907 0.0266,-1.99983"
         id="path331" /><path
         style="color:#000000;fill:#ff00ff;-inkscape-stroke:none"
         d="m 224.05469,135.36719 -0.0273,2 0.20118,0.004 0.0254,-2 z"
         id="path332" /></g><g
       id="path3194-3-6-9-27-8"><path
         style="color:#000000;fill:#ff0000;-inkscape-stroke:none"
         d="m 223.141,136.35586 1.99983,0.0266"
         id="path333" /><path
         style="color:#000000;fill:#ff00ff;-inkscape-stroke:none"
         d="m 223.14258,136.25586 -0.002,0.19922 1.99805,0.0273 0.004,-0.19922 z"
         id="path334" /></g><g
       id="path3194-5-9-61-1"><path
         style="color:#000000;fill:#ff0000;-inkscape-stroke:none"
         d="m 214.01926,152.18692 0.0266,-1.99982"
         id="path335" /><path
         style="color:#000000;fill:#ff00ff;-inkscape-stroke:none"
         d="m 213.94531,150.18555 -0.0254,2 0.19922,0.002 0.0273,-2 z"
         id="path336" /></g><g
       id="path3194-3-6-9-06-6"><path
         style="color:#000000;fill:#ff0000;-inkscape-stroke:none"
         d="m 213.03264,151.17371 1.99983,0.0266"
         id="path337" /><path
         style="color:#000000;fill:#ff00ff;-inkscape-stroke:none"
         d="m 213.0332,151.07422 -0.002,0.19922 2,0.0273 0.002,-0.20117 z"
         id="path338" /></g><g
       id="path3194-5-9-59-2"><path
         style="color:#000000;fill:#ff0000;-inkscape-stroke:none"
         d="m 224.12762,152.18696 0.0266,-1.99983"
         id="path339" /><path
         style="color:#000000;fill:#ff00ff;-inkscape-stroke:none"
         d="m 224.05469,150.18555 -0.0273,2 0.20118,0.002 0.0254,-2 z"
         id="path340" /></g><g
       id="path3194-3-6-9-49-1"><path
         style="color:#000000;fill:#ff0000;-inkscape-stroke:none"
         d="m 223.14101,151.17375 1.99982,0.0266"
         id="path341" /><path
         style="color:#000000;fill:#ff00ff;-inkscape-stroke:none"
         d="m 223.14258,151.07422 -0.002,0.19922 1.99805,0.0273 0.004,-0.20117 z"
         id="path342" /></g><g
       id="path3194-5-9-177-6"><path
         style="color:#000000;fill:#ff0000;-inkscape-stroke:none"
         d="m 244.3443,152.1953 0.0266,-1.99982"
         id="path343" /><path
         style="color:#000000;fill:#ff00ff;-inkscape-stroke:none"
         d="m 244.27148,150.19336 -0.0273,2 0.19922,0.004 0.0273,-2 z"
         id="path344" /></g><g
       id="path3194-3-6-9-11-4"><path
         style="color:#000000;fill:#ff0000;-inkscape-stroke:none"
         d="m 243.35769,151.18209 1.99982,0.0266"
         id="path345" /><path
         style="color:#000000;fill:#ff00ff;-inkscape-stroke:none"
         d="m 243.35937,151.08203 -0.004,0.19922 2,0.0273 0.004,-0.19922 z"
         id="path346" /></g><g
       id="path3194-5-9-77-0"><path
         style="color:#000000;fill:#ff0000;-inkscape-stroke:none"
         d="m 254.45266,152.18943 0.0266,-1.99983"
         id="path347" /><path
         style="color:#000000;fill:#ff00ff;-inkscape-stroke:none"
         d="m 254.37891,150.1875 -0.0254,2 0.19921,0.004 0.0274,-2 z"
         id="path348" /></g><g
       id="path3194-3-6-9-67-8"><path
         style="color:#000000;fill:#ff0000;-inkscape-stroke:none"
         d="m 253.46605,151.17622 1.99982,0.0266"
         id="path349" /><path
         style="color:#000000;fill:#ff00ff;-inkscape-stroke:none"
         d="m 253.4668,151.07617 -0.002,0.19922 2,0.0273 0.002,-0.19921 z"
         id="path350" /></g><g
       id="path3194-7-87-0-7-2-0"><path
         style="color:#000000;fill:#ff0000;-inkscape-stroke:none"
         d="m 257.49676,167.68698 h 2"
         id="path351" /><path
         style="color:#000000;fill:#ff00ff;-inkscape-stroke:none"
         d="m 257.49609,167.58789 v 0.19922 h 2 v -0.19922 z"
         id="path352" /></g><g
       id="path3194-3-5-9-2-5-2-2"><path
         style="color:#000000;fill:#ff0000;-inkscape-stroke:none"
         d="m 259.39676,165.78699 v 2"
         id="path353" /><path
         style="color:#000000;fill:#ff00ff;-inkscape-stroke:none"
         d="m 259.29687,165.78711 v 2 h 0.19922 v -2 z"
         id="path354" /></g><g
       id="path3194-7-87-0-7-9"><path
         style="color:#000000;fill:#ff0000;-inkscape-stroke:none"
         d="m 198.89676,167.68698 h 2"
         id="path355" /><path
         style="color:#000000;fill:#ff00ff;-inkscape-stroke:none"
         d="m 198.89648,167.58789 v 0.19922 h 2 v -0.19922 z"
         id="path356" /></g><g
       id="path3194-3-5-9-2-5-7"><path
         style="color:#000000;fill:#ff0000;-inkscape-stroke:none"
         d="m 198.99676,165.78698 v 2"
         id="path357" /><path
         style="color:#000000;fill:#ff00ff;-inkscape-stroke:none"
         d="m 198.89648,165.78711 v 2 h 0.20118 v -2 z"
         id="path358" /></g><g
       id="path3194-7-87-0-6"><path
         style="color:#000000;fill:#ff0000;-inkscape-stroke:none"
         d="m 198.89676,39.386985 h 2"
         id="path359" /><path
         style="color:#000000;fill:#ff00ff;-inkscape-stroke:none"
         d="m 198.89648,39.287109 v 0.199219 h 2 v -0.199219 z"
         id="path360" /></g><g
       id="path3194-3-5-9-2-4"><path
         style="color:#000000;fill:#ff0000;-inkscape-stroke:none"
         d="m 198.99676,39.286985 v 2"
         id="path361" /><path
         style="color:#000000;fill:#ff00ff;-inkscape-stroke:none"
         d="m 198.89648,39.287109 v 2 h 0.20118 v -2 z"
         id="path362" /></g><g
       id="path3194-7-87-3"><path
         style="color:#000000;fill:#ff0000;-inkscape-stroke:none"
         d="m 257.49675,39.386985 h 2"
         id="path363" /><path
         style="color:#000000;fill:#ff00ff;-inkscape-stroke:none"
         d="m 257.49609,39.287109 v 0.199219 h 2 v -0.199219 z"
         id="path364" /></g><g
       id="path3194-3-5-9-7"><path
         style="color:#000000;fill:#ff0000;-inkscape-stroke:none"
         d="m 259.39675,39.286985 v 2"
         id="path365" /><path
         style="color:#000000;fill:#ff00ff;-inkscape-stroke:none"
         d="m 259.29687,39.287109 v 2 h 0.19922 v -2 z"
         id="path366" /></g></g></svg>
