<?xml version="1.0" encoding="UTF-8" standalone="no"?>
<!-- Created with Inkscape (http://www.inkscape.org/) -->

<svg
   width="7.5670981mm"
   height="16.799789mm"
   viewBox="0 0 7.5670981 16.79979"
   version="1.1"
   id="svg1"
   inkscape:version="1.4 (e7c3feb100, 2024-10-09)"
   sodipodi:docname="diagram-arp-rsnx-click.svg"
   xmlns:inkscape="http://www.inkscape.org/namespaces/inkscape"
   xmlns:sodipodi="http://sodipodi.sourceforge.net/DTD/sodipodi-0.dtd"
   xmlns="http://www.w3.org/2000/svg"
   xmlns:svg="http://www.w3.org/2000/svg">
  <sodipodi:namedview
     id="namedview1"
     pagecolor="#ffffff"
     bordercolor="#666666"
     borderopacity="1.0"
     inkscape:showpageshadow="2"
     inkscape:pageopacity="0.0"
     inkscape:pagecheckerboard="0"
     inkscape:deskcolor="#d1d1d1"
     inkscape:document-units="mm"
     inkscape:zoom="0.95787274"
     inkscape:cx="-55.852931"
     inkscape:cy="184.78446"
     inkscape:window-width="1916"
     inkscape:window-height="1029"
     inkscape:window-x="0"
     inkscape:window-y="49"
     inkscape:window-maximized="1"
     inkscape:current-layer="layer1" />
  <defs
     id="defs1" />
  <g
     inkscape:label="Layer 1"
     inkscape:groupmode="layer"
     id="layer1"
     transform="translate(-111.06208,-68.771354)">
    <text
       xml:space="preserve"
       style="font-size:3.88056px;line-height:1.25;font-family:sans-serif;stroke-width:0.264583"
       x="114.83981"
       y="71.464462"
       id="text5-6-2-6-8"><tspan
         sodipodi:role="line"
         style="font-style:normal;font-variant:normal;font-weight:bold;font-stretch:normal;font-size:3.88056px;font-family:'Latin Modern Sans';-inkscape-font-specification:'Latin Modern Sans';text-align:center;text-anchor:middle;stroke-width:0.264583"
         x="114.83981"
         y="71.464462"
         id="tspan9-0-4">click</tspan></text>
    <circle
       style="display:inline;fill:#000000;stroke:#000000;stroke-width:0.2;stroke-linecap:round;stroke-linejoin:round;stroke-miterlimit:4.3;stroke-dasharray:none"
       id="path1450-8-5-56-3-2-6-4-4-7-03-6-1"
       cx="114.84563"
       cy="75.912704"
       r="1.65" />
    <g
       inkscape:label="Hershey Text"
       style="display:inline;fill:none;stroke:#000000;stroke-width:0.2;stroke-linecap:round;stroke-linejoin:round;stroke-dasharray:none"
       id="g192-6-8-7"
       transform="translate(-331.48321,-146.91019)">
      <g
         transform="translate(442.589,229.08)"
         id="g191-2-33-5"
         style="stroke-width:0.2;stroke-dasharray:none">
        <path
           d="M 129,18.9 V 649 h 211 l 51,-16 56,-28 41,-63 v -54 l -9,-60 -38,-53 -47,-29 -76,-18 H 132 312 L 495,18.9"
           style="stroke-width:75.5906;stroke-dasharray:none"
           transform="scale(0.00264583,-0.00264583)"
           id="path187-47-3-7" />
        <path
           d="M 466,31.5 H 132 V 356 H 410 132 v 287 h 322"
           style="stroke-width:75.5906;stroke-dasharray:none"
           transform="matrix(0.00264583,0,0,-0.00264583,1.53458,0)"
           id="path188-9-8-1" />
        <path
           d="m 78.8,107 53.2,-44 51,-25.2 63,-12.6 72,-3.1 79,31.5 53,47.4 19,63 -3,56 -34,57 -73,47 -129,57 -72,47 -38,51 -3,63 25,66 72,44 70,10 66,-7 50,-25 47,-35"
           style="stroke-width:75.5906;stroke-dasharray:none"
           transform="matrix(0.00264583,0,0,-0.00264583,2.96068,0)"
           id="path189-3-0-6" />
        <path
           d="M 466,31.5 H 132 V 356 H 410 132 v 287 h 322"
           style="stroke-width:75.5906;stroke-dasharray:none"
           transform="matrix(0.00264583,0,0,-0.00264583,4.40266,0)"
           id="path190-9-4-9" />
        <path
           d="M 274,22.1 V 649 H 56.7 495"
           style="stroke-width:75.5906;stroke-dasharray:none"
           transform="matrix(0.00264583,0,0,-0.00264583,5.82876,0)"
           id="path191-2-7-8" />
      </g>
    </g>
    <g
       inkscape:label="Hershey Text"
       style="display:inline;fill:none;stroke:#000000;stroke-width:0.2;stroke-linecap:round;stroke-linejoin:round;stroke-dasharray:none"
       id="g196-8-68"
       transform="translate(-331.99265,-148.48085)">
      <g
         transform="translate(443.712,234.002)"
         id="g195-3-90"
         style="stroke-width:0.2;stroke-dasharray:none">
        <path
           d="M 126,22.1 V 649 h 22 L 523,22.1 V 652"
           style="stroke-width:75.5906;stroke-dasharray:none"
           transform="scale(0.00264583,-0.00264583)"
           id="path192-0-6" />
        <path
           d="M 466,31.5 H 132 V 356 H 410 132 v 287 h 322"
           style="stroke-width:75.5906;stroke-dasharray:none"
           transform="matrix(0.00264583,0,0,-0.00264583,1.73302,0)"
           id="path193-1-8" />
        <path
           d="M 56.7,18.9 435,655 M 75.6,658 447,18.9"
           style="stroke-width:75.5906;stroke-dasharray:none"
           transform="matrix(0.00264583,0,0,-0.00264583,3.15912,0)"
           id="path194-7-7" />
        <path
           d="M 274,22.1 V 649 H 56.7 495"
           style="stroke-width:75.5906;stroke-dasharray:none"
           transform="matrix(0.00264583,0,0,-0.00264583,4.50056,0)"
           id="path195-8-9" />
      </g>
    </g>
  </g>
</svg>
