<?xml version="1.0" encoding="UTF-8" standalone="no"?>
<!-- Created with Inkscape (http://www.inkscape.org/) -->

<svg
   width="12.682805mm"
   height="17.182688mm"
   viewBox="0 0 12.682805 17.182687"
   version="1.1"
   id="svg1"
   inkscape:version="1.4 (e7c3feb100, 2024-10-09)"
   sodipodi:docname="diagram-chord-pot.svg"
   xmlns:inkscape="http://www.inkscape.org/namespaces/inkscape"
   xmlns:sodipodi="http://sodipodi.sourceforge.net/DTD/sodipodi-0.dtd"
   xmlns="http://www.w3.org/2000/svg"
   xmlns:svg="http://www.w3.org/2000/svg">
  <sodipodi:namedview
     id="namedview1"
     pagecolor="#ffffff"
     bordercolor="#666666"
     borderopacity="1.0"
     inkscape:showpageshadow="2"
     inkscape:pageopacity="0.0"
     inkscape:pagecheckerboard="0"
     inkscape:deskcolor="#d1d1d1"
     inkscape:document-units="mm"
     inkscape:zoom="1.1893651"
     inkscape:cx="134.10516"
     inkscape:cy="139.99066"
     inkscape:window-width="1916"
     inkscape:window-height="1029"
     inkscape:window-x="0"
     inkscape:window-y="49"
     inkscape:window-maximized="1"
     inkscape:current-layer="layer1" />
  <defs
     id="defs1" />
  <g
     inkscape:label="Layer 1"
     inkscape:groupmode="layer"
     id="layer1"
     transform="translate(-59.987979,-122.0432)">
    <g
       inkscape:label="Hershey Text"
       style="display:inline;fill:none;stroke:#000000;stroke-width:0.2;stroke-linecap:round;stroke-linejoin:round;stroke-dasharray:none"
       id="g444-3-2"
       transform="translate(-394.69153,-58.00252)">
      <g
         transform="translate(456.573,197.173)"
         id="g443-7-4"
         style="stroke-width:0.2;stroke-dasharray:none">
        <path
           d="m 520,97.6 -66,-50.4 -89,-31.4 -88,12.6 -82,44 -63,75.6 -31,79 -9.6,119 9.6,111 41,91 63,69 72,35 82,6 73,-15 50,-32 16,-19"
           style="stroke-width:70.8662;stroke-dasharray:none"
           transform="scale(0.00282222,-0.00282222)"
           id="path439-7-7" />
        <path
           d="M 132,22.1 V 652 359 H 532 V 649 22.1"
           style="stroke-width:70.8662;stroke-dasharray:none"
           transform="matrix(0.00282222,0,0,-0.00282222,1.66229,0)"
           id="path440-2-9" />
        <path
           d="m 334,22.1 82,12.5 82,53.6 56,84.8 29,111 v 103 l -16,85 -31,70 -51,66 -69,41 -70,13 -59,-10 -67,-25 -62,-54 -48,-91 -15.5,-72 -3.1,-108 12.6,-82 31,-75 45,-59.9 50,-41 54,-18.9 50,-3.1"
           style="stroke-width:70.8662;stroke-dasharray:none"
           transform="matrix(0.00282222,0,0,-0.00282222,3.54753,0)"
           id="path441-6-8" />
        <path
           d="M 129,18.9 V 649 h 211 l 51,-16 56,-28 41,-63 v -54 l -9,-60 -38,-53 -47,-29 -76,-18 H 132 312 L 495,18.9"
           style="stroke-width:70.8662;stroke-dasharray:none"
           transform="matrix(0.00282222,0,0,-0.00282222,5.45817,0)"
           id="path442-4-5" />
        <path
           d="M 132,31.5 V 646 h 177 l 72,-19 54,-29 37,-37 45,-73 15,-82 v -50 l -3,-66 -9,-76 -25,-53 -45,-66.5 -69,-40.9 -66,-19 -50,-3.1 H 135"
           style="stroke-width:70.8662;stroke-dasharray:none"
           transform="matrix(0.00282222,0,0,-0.00282222,7.09506,0)"
           id="path443-5-4" />
      </g>
    </g>
    <g
       id="g19598-9-8"
       transform="rotate(-28.125116,36.175729,176.21496)"
       style="display:inline;stroke-width:0.2;stroke-dasharray:none">
      <circle
         cx="103.03783"
         cy="136.52522"
         r="6.2400002"
         id="id_s_Small-0-5-5-4-8-1"
         style="fill:none;stroke:#000000;stroke-width:0.2;stroke-miterlimit:4;stroke-dasharray:none"
         transform="rotate(7.122032)" />
      <path
         d="m 85.107228,147.25096 0.06407,-5.2405"
         style="fill:none;stroke:#000000;stroke-width:0.2;stroke-miterlimit:4;stroke-dasharray:none"
         id="path2908-1-4-3-4-8-6-0" />
    </g>
  </g>
</svg>
