<?xml version="1.0" encoding="UTF-8" standalone="no"?>
<!-- Created with Inkscape (http://www.inkscape.org/) -->

<svg
   width="24.898279mm"
   height="42.811359mm"
   viewBox="0 0 24.898279 42.811361"
   version="1.1"
   id="svg1"
   inkscape:version="1.4 (e7c3feb100, 2024-10-09)"
   sodipodi:docname="diagram-arp-query.svg"
   xmlns:inkscape="http://www.inkscape.org/namespaces/inkscape"
   xmlns:sodipodi="http://sodipodi.sourceforge.net/DTD/sodipodi-0.dtd"
   xmlns="http://www.w3.org/2000/svg"
   xmlns:svg="http://www.w3.org/2000/svg">
  <sodipodi:namedview
     id="namedview1"
     pagecolor="#ffffff"
     bordercolor="#666666"
     borderopacity="1.0"
     inkscape:showpageshadow="2"
     inkscape:pageopacity="0.0"
     inkscape:pagecheckerboard="0"
     inkscape:deskcolor="#d1d1d1"
     inkscape:document-units="mm"
     inkscape:zoom="2.7092733"
     inkscape:cx="37.833024"
     inkscape:cy="47.983347"
     inkscape:window-width="1916"
     inkscape:window-height="1029"
     inkscape:window-x="0"
     inkscape:window-y="49"
     inkscape:window-maximized="1"
     inkscape:current-layer="layer1" />
  <defs
     id="defs1">
    <marker
       style="overflow:visible"
       id="Triangle"
       refX="0"
       refY="0"
       orient="auto-start-reverse"
       inkscape:stockid="Triangle arrow"
       markerWidth="2"
       markerHeight="1"
       viewBox="0 0 1 1"
       inkscape:isstock="true"
       inkscape:collect="always"
       preserveAspectRatio="none">
      <path
         transform="scale(0.5)"
         style="fill:context-stroke;fill-rule:evenodd;stroke:context-stroke;stroke-width:1pt"
         d="M 5.77,0 -2.88,5 V -5 Z"
         id="path135" />
    </marker>
  </defs>
  <g
     inkscape:label="Layer 1"
     inkscape:groupmode="layer"
     id="layer1"
     transform="translate(-75.495872,-181.32918)">
    <circle
       style="display:inline;fill:#000000;stroke:#000000;stroke-width:0.2;stroke-linecap:round;stroke-linejoin:round;stroke-miterlimit:4.3;stroke-dasharray:none"
       id="path1450-8-5-56-3-2-6-4-6-4-5"
       cx="86.672997"
       cy="188.17195"
       r="1.65" />
    <circle
       style="display:inline;fill:none;stroke:#000000;stroke-width:0.2;stroke-linecap:round;stroke-linejoin:round;stroke-miterlimit:4.3;stroke-dasharray:none"
       id="path1450-8-5-4-33"
       cx="193.36369"
       cy="-98.794151"
       r="1.5"
       transform="rotate(90)" />
    <circle
       style="display:inline;fill:none;stroke:#000000;stroke-width:0.2;stroke-linecap:round;stroke-linejoin:round;stroke-miterlimit:4.3;stroke-dasharray:none"
       id="path1450-8-5-4-8-8"
       cx="197.55534"
       cy="-98.794151"
       r="1.5"
       transform="rotate(90)" />
    <circle
       style="display:inline;fill:none;stroke:#000000;stroke-width:0.2;stroke-linecap:round;stroke-linejoin:round;stroke-miterlimit:4.3;stroke-dasharray:none"
       id="path1450-8-5-4-2-3"
       cx="201.74696"
       cy="-98.794151"
       r="1.5"
       transform="rotate(90)" />
    <circle
       style="display:inline;fill:#000000;stroke:#000000;stroke-width:0.2;stroke-linecap:round;stroke-linejoin:round;stroke-miterlimit:4.3;stroke-dasharray:none"
       id="path1450-8-5-4-5-7"
       cx="205.93858"
       cy="-98.794151"
       r="1.5"
       transform="rotate(90)" />
    <circle
       style="display:inline;fill:none;stroke:#000000;stroke-width:0.2;stroke-linecap:round;stroke-linejoin:round;stroke-miterlimit:4.3;stroke-dasharray:none"
       id="path1450-8-5-4-7-9"
       cx="210.1302"
       cy="-98.794151"
       r="1.5"
       transform="rotate(90)" />
    <circle
       style="display:inline;fill:none;stroke:#000000;stroke-width:0.2;stroke-linecap:round;stroke-linejoin:round;stroke-miterlimit:4.3;stroke-dasharray:none"
       id="path1450-8-5-4-71-3"
       cx="214.32182"
       cy="-98.794151"
       r="1.5"
       transform="rotate(90)" />
    <circle
       style="display:inline;fill:none;stroke:#000000;stroke-width:0.2;stroke-linecap:round;stroke-linejoin:round;stroke-miterlimit:4.3;stroke-dasharray:none"
       id="path1450-8-5-4-9-7"
       cx="218.51344"
       cy="-98.794151"
       r="1.5"
       transform="rotate(90)" />
    <circle
       style="display:inline;fill:none;stroke:#000000;stroke-width:0.2;stroke-linecap:round;stroke-linejoin:round;stroke-miterlimit:4.3;stroke-dasharray:none"
       id="path1450-8-5-4-9-7-2"
       cx="222.54054"
       cy="-98.794151"
       r="1.5"
       transform="rotate(90)" />
    <text
       xml:space="preserve"
       style="font-size:3.88056px;line-height:1.25;font-family:sans-serif;stroke-width:0.264583"
       x="86.676872"
       y="184.02229"
       id="text5-6-2-6-9"><tspan
         sodipodi:role="line"
         style="font-style:normal;font-variant:normal;font-weight:bold;font-stretch:normal;font-size:3.88056px;font-family:'Latin Modern Sans';-inkscape-font-specification:'Latin Modern Sans';text-align:center;text-anchor:middle;stroke-width:0.264583"
         x="86.676872"
         y="184.02229"
         id="tspan9-0-0">hold</tspan></text>
    <path
       style="fill:none;stroke:#000000;stroke-width:0.2;stroke-linecap:butt;stroke-linejoin:miter;stroke-dasharray:none;stroke-opacity:1;marker-end:url(#Triangle)"
       d="m 89.58208,205.93856 h 5.34479"
       id="path28"
       sodipodi:nodetypes="cc" />
    <path
       style="display:inline;fill:none;stroke:#000000;stroke-width:0.2;stroke-linecap:round;stroke-linejoin:round;stroke-dasharray:none;stroke-opacity:1"
       d="m 84.81027,194.18404 3.37868,-1.96975"
       id="path103-7-9-22-2-9-6" />
    <path
       style="display:inline;fill:none;stroke:#000000;stroke-width:0.2;stroke-linecap:round;stroke-linejoin:round;stroke-dasharray:none;stroke-opacity:1"
       d="m 88.18895,198.37566 -3.37868,-1.96975"
       id="path103-7-9-22-2-9-6-2" />
    <path
       style="display:inline;fill:none;stroke:#000000;stroke-width:0.2;stroke-linecap:round;stroke-linejoin:round;stroke-dasharray:none;stroke-opacity:1"
       d="m 84.81028,202.56729 1.73012,-1.96975 1.64855,1.96975"
       id="path104-2-8-3-9-2-1" />
    <path
       style="display:inline;fill:none;stroke:#000000;stroke-width:0.2;stroke-linecap:round;stroke-linejoin:round;stroke-dasharray:none;stroke-opacity:1"
       d="m 84.81027,206.75891 0.86356,-1.96975 h 0.86656 l 0.79136,1.96975 h 0.8572"
       id="path108-5-8-19-1-0-5" />
    <path
       style="display:inline;fill:none;stroke:#000000;stroke-width:0.2;stroke-linecap:round;stroke-linejoin:round;stroke-dasharray:none;stroke-opacity:1"
       d="m 84.81027,215.04075 c 1.36313,0.008 1.16339,-2.39109 2.8936,-1.61271 -1.17148,0.75264 -0.37212,1.98689 0.48508,1.49707"
       id="path115-3-5-1-3-0-0-4-0"
       sodipodi:nodetypes="ccc" />
    <path
       style="display:inline;fill:none;stroke:#000000;stroke-width:0.2;stroke-linecap:round;stroke-linejoin:round;stroke-dasharray:none;stroke-opacity:1"
       d="m 84.77513,210.94916 0.9246,-1.96698 0.74553,1.36671 0.53409,-0.75092 0.61358,1.35257 0.63117,-1.96975"
       id="path113-1-4-6-8-7-4-6"
       sodipodi:nodetypes="cccccc" />
    <path
       style="display:inline;fill:none;stroke:#000000;stroke-width:0.2;stroke-linecap:round;stroke-linejoin:round;stroke-dasharray:none;stroke-opacity:1"
       d="m 84.81027,223.42401 c 1.36313,0.008 1.16339,-2.3911 2.8936,-1.61272 -1.17148,0.75265 -0.37212,1.9869 0.48508,1.49708"
       id="path115-3-5-1-3-0-0-4-0-37"
       sodipodi:nodetypes="ccc" />
    <path
       style="display:inline;fill:none;stroke:#000000;stroke-width:0.2;stroke-linecap:round;stroke-linejoin:round;stroke-dasharray:none;stroke-opacity:1"
       d="m 84.77513,219.33241 0.9246,-1.96698 0.74553,1.36671 0.53409,-0.75092 0.61358,1.35257 0.63117,-1.96975"
       id="path113-1-4-6-8-7-4-6-1"
       sodipodi:nodetypes="cccccc" />
    <path
       style="display:inline;fill:none;stroke:#000000;stroke-width:0.2;stroke-linecap:round;stroke-linejoin:round;stroke-dasharray:none;stroke-opacity:1"
       d="m 78.99444,196.15041 v 19.83562"
       id="path387-3"
       sodipodi:nodetypes="cc" />
    <path
       style="display:inline;fill:none;stroke:#000000;stroke-width:0.2;stroke-linecap:round;stroke-linejoin:round;stroke-dasharray:none;stroke-opacity:1"
       d="m 78.99444,221.29879 v 2.48349"
       id="path388-1"
       sodipodi:nodetypes="cc" />
    <g
       inkscape:label="Hershey Text"
       style="display:inline;fill:none;stroke:#000000;stroke-width:0.2;stroke-linecap:round;stroke-linejoin:round;stroke-dasharray:none"
       id="g192"
       transform="translate(-367.33444,-34.815527)">
      <g
         transform="translate(442.589,229.08)"
         id="g191"
         style="stroke-width:0.2;stroke-dasharray:none">
        <path
           d="M 129,18.9 V 649 h 211 l 51,-16 56,-28 41,-63 v -54 l -9,-60 -38,-53 -47,-29 -76,-18 H 132 312 L 495,18.9"
           style="stroke-width:75.5906;stroke-dasharray:none"
           transform="scale(0.00264583,-0.00264583)"
           id="path187" />
        <path
           d="M 466,31.5 H 132 V 356 H 410 132 v 287 h 322"
           style="stroke-width:75.5906;stroke-dasharray:none"
           transform="matrix(0.00264583,0,0,-0.00264583,1.53458,0)"
           id="path188" />
        <path
           d="m 78.8,107 53.2,-44 51,-25.2 63,-12.6 72,-3.1 79,31.5 53,47.4 19,63 -3,56 -34,57 -73,47 -129,57 -72,47 -38,51 -3,63 25,66 72,44 70,10 66,-7 50,-25 47,-35"
           style="stroke-width:75.5906;stroke-dasharray:none"
           transform="matrix(0.00264583,0,0,-0.00264583,2.96068,0)"
           id="path189" />
        <path
           d="M 466,31.5 H 132 V 356 H 410 132 v 287 h 322"
           style="stroke-width:75.5906;stroke-dasharray:none"
           transform="matrix(0.00264583,0,0,-0.00264583,4.40266,0)"
           id="path190" />
        <path
           d="M 274,22.1 V 649 H 56.7 495"
           style="stroke-width:75.5906;stroke-dasharray:none"
           transform="matrix(0.00264583,0,0,-0.00264583,5.82876,0)"
           id="path191" />
      </g>
    </g>
    <g
       inkscape:label="Hershey Text"
       style="display:inline;fill:none;stroke:#000000;stroke-width:0.2;stroke-linecap:round;stroke-linejoin:round;stroke-dasharray:none"
       id="g196"
       transform="translate(-367.78937,-14.757607)">
      <g
         transform="translate(443.712,234.002)"
         id="g195"
         style="stroke-width:0.2;stroke-dasharray:none">
        <path
           d="M 126,22.1 V 649 h 22 L 523,22.1 V 652"
           style="stroke-width:75.5906;stroke-dasharray:none"
           transform="scale(0.00264583,-0.00264583)"
           id="path192" />
        <path
           d="M 466,31.5 H 132 V 356 H 410 132 v 287 h 322"
           style="stroke-width:75.5906;stroke-dasharray:none"
           transform="matrix(0.00264583,0,0,-0.00264583,1.73302,0)"
           id="path193" />
        <path
           d="M 56.7,18.9 435,655 M 75.6,658 447,18.9"
           style="stroke-width:75.5906;stroke-dasharray:none"
           transform="matrix(0.00264583,0,0,-0.00264583,3.15912,0)"
           id="path194" />
        <path
           d="M 274,22.1 V 649 H 56.7 495"
           style="stroke-width:75.5906;stroke-dasharray:none"
           transform="matrix(0.00264583,0,0,-0.00264583,4.50056,0)"
           id="path195" />
      </g>
    </g>
  </g>
</svg>
