<?xml version="1.0" encoding="UTF-8" standalone="no"?>
<!-- Created with Inkscape (http://www.inkscape.org/) -->

<svg
   width="57.523544mm"
   height="19.940393mm"
   viewBox="0 0 57.523544 19.940394"
   version="1.1"
   id="svg1"
   inkscape:version="1.4 (e7c3feb100, 2024-10-09)"
   sodipodi:docname="diagram-contour-cv.svg"
   xmlns:inkscape="http://www.inkscape.org/namespaces/inkscape"
   xmlns:sodipodi="http://sodipodi.sourceforge.net/DTD/sodipodi-0.dtd"
   xmlns="http://www.w3.org/2000/svg"
   xmlns:svg="http://www.w3.org/2000/svg">
  <sodipodi:namedview
     id="namedview1"
     pagecolor="#ffffff"
     bordercolor="#666666"
     borderopacity="1.0"
     inkscape:showpageshadow="2"
     inkscape:pageopacity="0.0"
     inkscape:pagecheckerboard="0"
     inkscape:deskcolor="#d1d1d1"
     inkscape:document-units="mm"
     inkscape:zoom="2.8284271"
     inkscape:cx="67.705475"
     inkscape:cy="41.365747"
     inkscape:window-width="1916"
     inkscape:window-height="1029"
     inkscape:window-x="0"
     inkscape:window-y="49"
     inkscape:window-maximized="1"
     inkscape:current-layer="layer1" />
  <defs
     id="defs1" />
  <g
     inkscape:label="Layer 1"
     inkscape:groupmode="layer"
     id="layer1"
     transform="translate(-91.096613,-114.8062)">
    <text
       xml:space="preserve"
       style="font-style:normal;font-variant:normal;font-weight:normal;font-stretch:normal;font-size:3.88056px;line-height:1.25;font-family:'Latin Modern Sans';-inkscape-font-specification:'Latin Modern Sans';stroke-width:0.264583"
       x="115.13468"
       y="129.45598"
       id="text5-6-6-6-9"><tspan
         sodipodi:role="line"
         id="tspan5-7-8-1-3"
         style="font-style:normal;font-variant:normal;font-weight:bold;font-stretch:normal;font-size:3.88056px;font-family:'Latin Modern Sans';-inkscape-font-specification:'Latin Modern Sans';stroke-width:0.264583"
         x="115.13468"
         y="129.45598">+</tspan></text>
    <text
       xml:space="preserve"
       style="font-size:3.88056px;line-height:1.25;font-family:sans-serif;stroke-width:0.264583"
       x="135.10294"
       y="121.73259"
       id="text23-0-6-2"><tspan
         sodipodi:role="line"
         style="font-style:normal;font-variant:normal;font-weight:bold;font-stretch:normal;font-size:3.88056px;font-family:'Latin Modern Sans';-inkscape-font-specification:'Latin Modern Sans';text-align:center;text-anchor:middle;stroke-width:0.264583"
         x="135.10294"
         y="121.73259"
         id="tspan25-0-9">CV offset</tspan></text>
    <text
       xml:space="preserve"
       style="font-size:3.88056px;line-height:1.25;font-family:sans-serif;stroke-width:0.264583"
       x="127.3691"
       y="130.38144"
       id="text23-2-2"><tspan
         sodipodi:role="line"
         style="font-style:normal;font-variant:normal;font-weight:bold;font-stretch:normal;font-size:3.88056px;font-family:'Latin Modern Sans';-inkscape-font-specification:'Latin Modern Sans';text-align:center;text-anchor:middle;stroke-width:0.264583"
         x="127.3691"
         y="130.38144"
         id="tspan24-8-6">-5 V</tspan></text>
    <text
       xml:space="preserve"
       style="font-size:3.88056px;line-height:1.25;font-family:sans-serif;stroke-width:0.264583"
       x="143.86647"
       y="130.38144"
       id="text23-2-2-9"><tspan
         sodipodi:role="line"
         style="font-style:normal;font-variant:normal;font-weight:bold;font-stretch:normal;font-size:3.88056px;font-family:'Latin Modern Sans';-inkscape-font-specification:'Latin Modern Sans';text-align:center;text-anchor:middle;stroke-width:0.264583"
         x="143.86647"
         y="130.38144"
         id="tspan24-8-6-8">+5 V</tspan></text>
    <text
       xml:space="preserve"
       style="font-size:3.88056px;line-height:1.25;font-family:sans-serif;stroke-width:0.264583"
       x="102.06573"
       y="113.4687"
       id="text5-6-2-1"><tspan
         sodipodi:role="line"
         style="font-style:normal;font-variant:normal;font-weight:bold;font-stretch:normal;font-size:3.88056px;font-family:'Latin Modern Sans';-inkscape-font-specification:'Latin Modern Sans';text-align:center;text-anchor:middle;stroke-width:0.264583"
         x="102.06573"
         y="113.4687"
         id="tspan9-7" /></text>
    <text
       xml:space="preserve"
       style="font-style:normal;font-variant:normal;font-weight:normal;font-stretch:normal;font-size:3.88056px;line-height:1.25;font-family:'Latin Modern Sans';-inkscape-font-specification:'Latin Modern Sans';stroke-width:0.264583"
       x="102.15038"
       y="117.49931"
       id="text5-6-6-3-2-4"><tspan
         sodipodi:role="line"
         style="font-style:normal;font-variant:normal;font-weight:bold;font-stretch:normal;font-size:3.88056px;font-family:'Latin Modern Sans';-inkscape-font-specification:'Latin Modern Sans';text-align:center;text-anchor:middle;stroke-width:0.264583"
         x="102.15038"
         y="117.49931"
         id="tspan7">-5 V to 5 V</tspan></text>
    <g
       id="g1"
       transform="translate(-310.36039,-94.846116)">
      <g
         id="g1-39-2"
         transform="translate(-56.69525,3.407618)"
         style="display:inline;stroke-width:0.2;stroke-dasharray:none">
        <g
           inkscape:label="Hershey Text"
           style="fill:none;stroke:#000000;stroke-width:0.2;stroke-linecap:round;stroke-linejoin:round;stroke-dasharray:none"
           id="g475-4">
          <g
             transform="translate(465.592,225.914)"
             id="g474-3"
             style="stroke-width:0.2;stroke-dasharray:none">
            <path
               d="m 520,97.6 -66,-50.4 -89,-31.4 -88,12.6 -82,44 -63,75.6 -31,79 -9.6,119 9.6,111 41,91 63,69 72,35 82,6 73,-15 50,-32 16,-19"
               style="stroke-width:75.5906;stroke-dasharray:none"
               transform="scale(0.00264583,-0.00264583)"
               id="path470-7" />
            <path
               d="m 334,22.1 82,12.5 82,53.6 56,84.8 29,111 v 103 l -16,85 -31,70 -51,66 -69,41 -70,13 -59,-10 -67,-25 -62,-54 -48,-91 -15.5,-72 -3.1,-108 12.6,-82 31,-75 45,-59.9 50,-41 54,-18.9 50,-3.1"
               style="stroke-width:75.5906;stroke-dasharray:none"
               transform="matrix(0.00264583,0,0,-0.00264583,1.55839,0)"
               id="path471-12" />
            <path
               d="M 126,22.1 V 649 h 22 L 523,22.1 V 652"
               style="stroke-width:75.5906;stroke-dasharray:none"
               transform="matrix(0.00264583,0,0,-0.00264583,3.34962,0)"
               id="path472-20" />
            <path
               d="M 274,22.1 V 649 H 56.7 495"
               style="stroke-width:75.5906;stroke-dasharray:none"
               transform="matrix(0.00264583,0,0,-0.00264583,5.08264,0)"
               id="path473-2" />
            <path
               d="M 97.6,72.4 V 22.1 H 148 V 72.4 H 97.6"
               style="stroke-width:75.5906;stroke-dasharray:none"
               transform="matrix(0.00264583,0,0,-0.00264583,6.53255,0)"
               id="path474-1" />
          </g>
        </g>
      </g>
      <g
         id="g66-09"
         transform="translate(-301.21872,-1.399126)"
         style="display:inline">
        <circle
           style="display:inline;fill:none;stroke:#000000;stroke-width:0.2;stroke-linecap:round;stroke-linejoin:round;stroke-miterlimit:4;stroke-dasharray:none"
           id="path1457-2-1-5-0"
           cx="713.69916"
           cy="223.36014"
           r="2.998173"
           inkscape:export-filename="/home/phoracek/code/zlosynth/private/kaseta/text.png"
           inkscape:export-xdpi="899.97046"
           inkscape:export-ydpi="899.97046" />
        <circle
           style="display:inline;fill:none;stroke:#000000;stroke-width:0.2;stroke-linecap:round;stroke-linejoin:round;stroke-miterlimit:4;stroke-dasharray:none"
           id="path1457-2-1-5-9-4"
           cx="713.69916"
           cy="223.36014"
           r="1.819446"
           inkscape:export-filename="/home/phoracek/code/zlosynth/private/kaseta/text.png"
           inkscape:export-xdpi="899.97046"
           inkscape:export-ydpi="899.97046" />
      </g>
    </g>
    <g
       id="g61"
       transform="translate(-0.18708867,-17.943291)">
      <g
         inkscape:label="Hershey Text"
         style="display:inline;fill:none;stroke:#000000;stroke-width:0.2;stroke-linecap:round;stroke-linejoin:round;stroke-dasharray:none"
         id="g434-1"
         transform="translate(-344.91598,-52.47552)">
        <g
           transform="translate(474.3,205.11)"
           id="g433-9"
           style="stroke-width:0.2;stroke-dasharray:none">
          <path
             d="m 520,97.6 -66,-50.4 -89,-31.4 -88,12.6 -82,44 -63,75.6 -31,79 -9.6,119 9.6,111 41,91 63,69 72,35 82,6 73,-15 50,-32 16,-19"
             style="stroke-width:70.8662;stroke-dasharray:none"
             transform="scale(0.00282222,-0.00282222)"
             id="path427-0" />
          <path
             d="m 334,22.1 82,12.5 82,53.6 56,84.8 29,111 v 103 l -16,85 -31,70 -51,66 -69,41 -70,13 -59,-10 -67,-25 -62,-54 -48,-91 -15.5,-72 -3.1,-108 12.6,-82 31,-75 45,-59.9 50,-41 54,-18.9 50,-3.1"
             style="stroke-width:70.8662;stroke-dasharray:none"
             transform="matrix(0.00282222,0,0,-0.00282222,1.66229,0)"
             id="path428-5" />
          <path
             d="M 126,22.1 V 649 h 22 L 523,22.1 V 652"
             style="stroke-width:70.8662;stroke-dasharray:none"
             transform="matrix(0.00282222,0,0,-0.00282222,3.57293,0)"
             id="path429-6" />
          <path
             d="M 274,22.1 V 649 H 56.7 495"
             style="stroke-width:70.8662;stroke-dasharray:none"
             transform="matrix(0.00282222,0,0,-0.00282222,5.42148,0)"
             id="path430-7" />
          <path
             d="m 334,22.1 82,12.5 82,53.6 56,84.8 29,111 v 103 l -16,85 -31,70 -51,66 -69,41 -70,13 -59,-10 -67,-25 -62,-54 -48,-91 -15.5,-72 -3.1,-108 12.6,-82 31,-75 45,-59.9 50,-41 54,-18.9 50,-3.1"
             style="stroke-width:70.8662;stroke-dasharray:none"
             transform="matrix(0.00282222,0,0,-0.00282222,6.96806,0)"
             id="path431-7" />
          <path
             d="M 135,655 V 217 l 10,-56 28,-60 38,-41.1 57,-31.5 53,-12.6 66,9.4 67,34.7 47,57.1 22,50 6,69 v 416"
             style="stroke-width:70.8662;stroke-dasharray:none"
             transform="matrix(0.00282222,0,0,-0.00282222,8.8787,0)"
             id="path432-4" />
          <path
             d="M 129,18.9 V 649 h 211 l 51,-16 56,-28 41,-63 v -54 l -9,-60 -38,-53 -47,-29 -76,-18 H 132 312 L 495,18.9"
             style="stroke-width:70.8662;stroke-dasharray:none"
             transform="matrix(0.00282222,0,0,-0.00282222,10.747,0)"
             id="path433-0" />
        </g>
      </g>
      <g
         id="g65"
         transform="translate(-525.28712,-189.90446)"
         style="display:inline;stroke-width:0.2;stroke-dasharray:none">
        <ellipse
           cx="-690.73151"
           cy="277.24338"
           id="id_s_Small-0-5-7-2-0-49-1-9"
           style="display:inline;fill:none;stroke:#000000;stroke-width:0.200009;stroke-miterlimit:4;stroke-dasharray:none"
           transform="matrix(-0.65827968,-0.75277345,0.7436701,-0.66854677,0,0)"
           rx="2.8406663"
           ry="2.8464367" />
        <path
           d="m 660.67351,334.96015 -1.59107,1.78913"
           style="display:inline;fill:none;stroke:#000000;stroke-width:0.2;stroke-miterlimit:4;stroke-dasharray:none"
           id="path2908-1-4-3-43-8-8-5-2-6" />
      </g>
    </g>
    <text
       xml:space="preserve"
       style="font-size:3.88056px;line-height:1.25;font-family:sans-serif;stroke-width:0.264583"
       x="102.02233"
       y="121.73259"
       id="text23-2"><tspan
         sodipodi:role="line"
         style="font-style:normal;font-variant:normal;font-weight:bold;font-stretch:normal;font-size:3.88056px;font-family:'Latin Modern Sans';-inkscape-font-specification:'Latin Modern Sans';text-align:center;text-anchor:middle;stroke-width:0.264583"
         x="102.02233"
         y="121.73259"
         id="tspan24-8">1 ms to 10 s</tspan></text>
  </g>
</svg>
