<?xml version="1.0" encoding="UTF-8" standalone="no"?>
<!-- Created with Inkscape (http://www.inkscape.org/) -->

<svg
   width="11.56018mm"
   height="16.463251mm"
   viewBox="0 0 11.56018 16.463252"
   version="1.1"
   id="svg1"
   inkscape:version="1.4 (e7c3feb100, 2024-10-09)"
   sodipodi:docname="diagram-arp-rsnx-cv.svg"
   xmlns:inkscape="http://www.inkscape.org/namespaces/inkscape"
   xmlns:sodipodi="http://sodipodi.sourceforge.net/DTD/sodipodi-0.dtd"
   xmlns="http://www.w3.org/2000/svg"
   xmlns:svg="http://www.w3.org/2000/svg">
  <sodipodi:namedview
     id="namedview1"
     pagecolor="#ffffff"
     bordercolor="#666666"
     borderopacity="1.0"
     inkscape:showpageshadow="2"
     inkscape:pageopacity="0.0"
     inkscape:pagecheckerboard="0"
     inkscape:deskcolor="#d1d1d1"
     inkscape:document-units="mm"
     inkscape:zoom="0.95787274"
     inkscape:cx="-122.66765"
     inkscape:cy="185.82844"
     inkscape:window-width="1916"
     inkscape:window-height="1029"
     inkscape:window-x="0"
     inkscape:window-y="49"
     inkscape:window-maximized="1"
     inkscape:current-layer="layer1" />
  <defs
     id="defs1" />
  <g
     inkscape:label="Layer 1"
     inkscape:groupmode="layer"
     id="layer1"
     transform="translate(-128.98246,-68.457307)">
    <text
       xml:space="preserve"
       style="font-size:3.88056px;line-height:1.25;font-family:sans-serif;stroke-width:0.264583"
       x="134.75479"
       y="71.068924"
       id="text5-6-2-6-0-3-9"><tspan
         sodipodi:role="line"
         style="font-style:normal;font-variant:normal;font-weight:bold;font-stretch:normal;font-size:3.88056px;font-family:'Latin Modern Sans';-inkscape-font-specification:'Latin Modern Sans';text-align:center;text-anchor:middle;stroke-width:0.264583"
         x="134.75479"
         y="71.068924"
         id="tspan9-0-3-7-1">trigger</tspan></text>
    <g
       inkscape:label="Hershey Text"
       style="display:inline;fill:none;stroke:#000000;stroke-width:0.2;stroke-linecap:round;stroke-linejoin:round;stroke-dasharray:none"
       id="g499-1-37-0"
       transform="translate(-322.26299,-147.78015)">
      <g
         transform="translate(453.404,232.225)"
         id="g498-5-3-4"
         style="stroke-width:0.2;stroke-dasharray:none">
        <path
           d="M 129,18.9 V 649 h 211 l 51,-16 56,-28 41,-63 v -54 l -9,-60 -38,-53 -47,-29 -76,-18 H 132 312 L 495,18.9"
           style="stroke-width:75.5906;stroke-dasharray:none"
           transform="scale(0.00264583,-0.00264583)"
           id="path494-4-2-8" />
        <path
           d="m 78.8,107 53.2,-44 51,-25.2 63,-12.6 72,-3.1 79,31.5 53,47.4 19,63 -3,56 -34,57 -73,47 -129,57 -72,47 -38,51 -3,63 25,66 72,44 70,10 66,-7 50,-25 47,-35"
           style="stroke-width:75.5906;stroke-dasharray:none"
           transform="matrix(0.00264583,0,0,-0.00264583,1.53458,0)"
           id="path495-15-6-4" />
        <path
           d="M 44.1,-142 343,709"
           style="stroke-width:75.5906;stroke-dasharray:none"
           transform="matrix(0.00264583,0,0,-0.00264583,2.97656,0)"
           id="path496-5-5-8" />
        <path
           d="M 126,22.1 V 649 h 22 L 523,22.1 V 652"
           style="stroke-width:75.5906;stroke-dasharray:none"
           transform="matrix(0.00264583,0,0,-0.00264583,3.98462,0)"
           id="path497-4-2-1" />
        <path
           d="M 56.7,18.9 435,655 M 75.6,658 447,18.9"
           style="stroke-width:75.5906;stroke-dasharray:none"
           transform="matrix(0.00264583,0,0,-0.00264583,5.71764,0)"
           id="path498-9-6-6" />
      </g>
    </g>
    <g
       id="g66-0-5-8"
       style="display:inline"
       transform="translate(-578.93661,-146.12932)">
      <circle
         style="display:inline;fill:none;stroke:#000000;stroke-width:0.2;stroke-linecap:round;stroke-linejoin:round;stroke-miterlimit:4;stroke-dasharray:none"
         id="path1457-2-1-5-8-8-5"
         cx="713.69916"
         cy="223.36014"
         r="2.998173"
         inkscape:export-filename="/home/phoracek/code/zlosynth/private/kaseta/text.png"
         inkscape:export-xdpi="899.97046"
         inkscape:export-ydpi="899.97046" />
      <circle
         style="display:inline;fill:none;stroke:#000000;stroke-width:0.2;stroke-linecap:round;stroke-linejoin:round;stroke-miterlimit:4;stroke-dasharray:none"
         id="path1457-2-1-5-9-9-7-2"
         cx="713.69916"
         cy="223.36014"
         r="1.819446"
         inkscape:export-filename="/home/phoracek/code/zlosynth/private/kaseta/text.png"
         inkscape:export-xdpi="899.97046"
         inkscape:export-ydpi="899.97046" />
    </g>
  </g>
</svg>
