<?xml version="1.0" encoding="UTF-8" standalone="no"?>
<!-- Created with Inkscape (http://www.inkscape.org/) -->

<svg
   width="7.8736115mm"
   height="10.937133mm"
   viewBox="0 0 7.8736116 10.937133"
   version="1.1"
   id="svg1"
   inkscape:version="1.4 (e7c3feb100, 2024-10-09)"
   sodipodi:docname="diagram-pluck-pot.svg"
   xmlns:inkscape="http://www.inkscape.org/namespaces/inkscape"
   xmlns:sodipodi="http://sodipodi.sourceforge.net/DTD/sodipodi-0.dtd"
   xmlns="http://www.w3.org/2000/svg"
   xmlns:svg="http://www.w3.org/2000/svg">
  <sodipodi:namedview
     id="namedview1"
     pagecolor="#ffffff"
     bordercolor="#666666"
     borderopacity="1.0"
     inkscape:showpageshadow="2"
     inkscape:pageopacity="0.0"
     inkscape:pagecheckerboard="0"
     inkscape:deskcolor="#d1d1d1"
     inkscape:document-units="mm"
     inkscape:zoom="2.7901516"
     inkscape:cx="4.1216398"
     inkscape:cy="-11.110507"
     inkscape:window-width="1916"
     inkscape:window-height="1029"
     inkscape:window-x="0"
     inkscape:window-y="49"
     inkscape:window-maximized="1"
     inkscape:current-layer="g12"
     showgrid="false" />
  <defs
     id="defs1" />
  <g
     inkscape:label="Layer 1"
     inkscape:groupmode="layer"
     id="layer1"
     transform="translate(-65.518913,-148.07706)">
    <g
       id="g12"
       transform="translate(-303.22451,-56.235343)">
      <g
         inkscape:label="Hershey Text"
         style="display:inline;fill:none;stroke:#000000;stroke-width:0.2;stroke-linecap:round;stroke-linejoin:round;stroke-dasharray:none"
         id="g439-6"
         transform="translate(-119.85211,7.17313)">
        <g
           transform="translate(488.323,208.021)"
           id="g438-06"
           style="stroke-width:0.2;stroke-dasharray:none">
          <path
             d="M 135,15.8 V 649 h 224 l 57,-16 41,-31 31,-41 13,-63 -3,-57 -26,-63 -47,-38 -66,-25 -75,-3 H 132"
             style="stroke-width:70.8662;stroke-dasharray:none"
             transform="scale(0.00282222,-0.00282222)"
             id="path434-6" />
          <path
             d="M 132,655 V 31.5 h 315"
             style="stroke-width:70.8662;stroke-dasharray:none"
             transform="matrix(0.00282222,0,0,-0.00282222,1.63689,0)"
             id="path435-4" />
          <path
             d="M 135,655 V 217 l 10,-56 28,-60 38,-41.1 57,-31.5 53,-12.6 66,9.4 67,34.7 47,57.1 22,50 6,69 v 416"
             style="stroke-width:70.8662;stroke-dasharray:none"
             transform="matrix(0.00282222,0,0,-0.00282222,3.0226,0)"
             id="path436-6" />
          <path
             d="m 520,97.6 -66,-50.4 -89,-31.4 -88,12.6 -82,44 -63,75.6 -31,79 -9.6,119 9.6,111 41,91 63,69 72,35 82,6 73,-15 50,-32 16,-19"
             style="stroke-width:70.8662;stroke-dasharray:none"
             transform="matrix(0.00282222,0,0,-0.00282222,4.89091,0)"
             id="path437-2" />
          <path
             d="M 132,18.9 V 655 M 491,649 142,255 M 293,425 529,18.9"
             style="stroke-width:70.8662;stroke-dasharray:none"
             transform="matrix(0.00282222,0,0,-0.00282222,6.55319,0)"
             id="path438-8" />
        </g>
      </g>
      <g
         id="g64"
         transform="translate(-309.09396,-130.7787)"
         style="display:inline;stroke-width:0.2;stroke-dasharray:none">
        <ellipse
           cx="-707.26495"
           cy="290.715"
           id="id_s_Small-0-5-7-2-0-49-1-6"
           style="display:inline;fill:none;stroke:#000000;stroke-width:0.200009;stroke-miterlimit:4;stroke-dasharray:none"
           transform="matrix(-0.65827968,-0.75277345,0.7436701,-0.66854677,0,0)"
           rx="2.8406663"
           ry="2.8464367" />
        <path
           d="m 681.5756,338.39973 -1.59107,1.78913"
           style="display:inline;fill:none;stroke:#000000;stroke-width:0.2;stroke-miterlimit:4;stroke-dasharray:none"
           id="path2908-1-4-3-43-8-8-5-2-4" />
      </g>
    </g>
  </g>
</svg>
