<?xml version="1.0" encoding="UTF-8" standalone="no"?>
<!-- Created with Inkscape (http://www.inkscape.org/) -->

<svg
   width="91.672989mm"
   height="75.444427mm"
   viewBox="0 0 91.672989 75.444427"
   version="1.1"
   id="svg1"
   inkscape:version="1.3 (0e150ed6c4, 2023-07-21)"
   sodipodi:docname="diagram-chord.svg"
   xmlns:inkscape="http://www.inkscape.org/namespaces/inkscape"
   xmlns:sodipodi="http://sodipodi.sourceforge.net/DTD/sodipodi-0.dtd"
   xmlns="http://www.w3.org/2000/svg"
   xmlns:svg="http://www.w3.org/2000/svg">
  <sodipodi:namedview
     id="namedview1"
     pagecolor="#ffffff"
     bordercolor="#666666"
     borderopacity="1.0"
     inkscape:showpageshadow="2"
     inkscape:pageopacity="0.0"
     inkscape:pagecheckerboard="0"
     inkscape:deskcolor="#d1d1d1"
     inkscape:document-units="mm"
     inkscape:zoom="0.29734127"
     inkscape:cx="171.52009"
     inkscape:cy="142.9334"
     inkscape:window-width="956"
     inkscape:window-height="1029"
     inkscape:window-x="960"
     inkscape:window-y="25"
     inkscape:window-maximized="1"
     inkscape:current-layer="layer1" />
  <defs
     id="defs1" />
  <g
     inkscape:label="Layer 1"
     inkscape:groupmode="layer"
     id="layer1"
     transform="translate(-59.266671,-110.33124)">
    <circle
       style="display:inline;fill:none;stroke:#000000;stroke-width:0.2;stroke-linecap:round;stroke-linejoin:round;stroke-miterlimit:4.3;stroke-dasharray:none"
       id="path1450-8-5-4-76"
       cx="154.8343"
       cy="-98.557167"
       r="1.5"
       transform="rotate(90)" />
    <circle
       style="display:inline;fill:none;stroke:#000000;stroke-width:0.2;stroke-linecap:round;stroke-linejoin:round;stroke-miterlimit:4.3;stroke-dasharray:none"
       id="path1450-8-5-4-8-13"
       cx="159.02594"
       cy="-98.557167"
       r="1.5"
       transform="rotate(90)" />
    <circle
       style="display:inline;fill:none;stroke:#000000;stroke-width:0.2;stroke-linecap:round;stroke-linejoin:round;stroke-miterlimit:4.3;stroke-dasharray:none"
       id="path1450-8-5-4-2-2"
       cx="163.21756"
       cy="-98.557167"
       r="1.5"
       transform="rotate(90)" />
    <circle
       style="display:inline;fill:none;stroke:#000000;stroke-width:0.2;stroke-linecap:round;stroke-linejoin:round;stroke-miterlimit:4.3;stroke-dasharray:none"
       id="path1450-8-5-4-5-1"
       cx="167.40918"
       cy="-98.557167"
       r="1.5"
       transform="rotate(90)" />
    <circle
       style="display:inline;fill:none;stroke:#000000;stroke-width:0.2;stroke-linecap:round;stroke-linejoin:round;stroke-miterlimit:4.3;stroke-dasharray:none"
       id="path1450-8-5-4-7-5"
       cx="171.6008"
       cy="-98.557167"
       r="1.5"
       transform="rotate(90)" />
    <circle
       style="display:inline;fill:none;stroke:#000000;stroke-width:0.2;stroke-linecap:round;stroke-linejoin:round;stroke-miterlimit:4.3;stroke-dasharray:none"
       id="path1450-8-5-4-71-99"
       cx="175.79242"
       cy="-98.557167"
       r="1.5"
       transform="rotate(90)" />
    <circle
       style="display:inline;fill:none;stroke:#000000;stroke-width:0.2;stroke-linecap:round;stroke-linejoin:round;stroke-miterlimit:4.3;stroke-dasharray:none"
       id="path1450-8-5-4-9-1"
       cx="179.98402"
       cy="-98.557167"
       r="1.5"
       transform="rotate(90)" />
    <circle
       style="display:inline;fill:none;stroke:#000000;stroke-width:0.2;stroke-linecap:round;stroke-linejoin:round;stroke-miterlimit:4.3;stroke-dasharray:none"
       id="path1450-8-5-4-1-49"
       cx="184.17567"
       cy="-98.557167"
       r="1.5"
       transform="rotate(90)" />
    <circle
       style="display:inline;fill:#000000;stroke:#000000;stroke-width:0.2;stroke-linecap:round;stroke-linejoin:round;stroke-miterlimit:4.3;stroke-dasharray:none"
       id="path1450-8-5-4-76-0"
       cx="154.8343"
       cy="-129.27591"
       r="1.5"
       transform="rotate(90)" />
    <circle
       style="display:inline;fill:none;stroke:#000000;stroke-width:0.2;stroke-linecap:round;stroke-linejoin:round;stroke-miterlimit:4.3;stroke-dasharray:none"
       id="path1450-8-5-4-8-13-5"
       cx="159.02594"
       cy="-129.27591"
       r="1.5"
       transform="rotate(90)" />
    <circle
       style="display:inline;fill:#000000;stroke:#000000;stroke-width:0.2;stroke-linecap:round;stroke-linejoin:round;stroke-miterlimit:4.3;stroke-dasharray:none"
       id="path1450-8-5-4-2-2-0"
       cx="163.21756"
       cy="-129.27591"
       r="1.5"
       transform="rotate(90)" />
    <circle
       style="display:inline;fill:none;stroke:#000000;stroke-width:0.2;stroke-linecap:round;stroke-linejoin:round;stroke-miterlimit:4.3;stroke-dasharray:none"
       id="path1450-8-5-4-5-1-2"
       cx="167.40918"
       cy="-129.27591"
       r="1.5"
       transform="rotate(90)" />
    <circle
       style="display:inline;fill:#000000;stroke:#000000;stroke-width:0.2;stroke-linecap:round;stroke-linejoin:round;stroke-miterlimit:4.3;stroke-dasharray:none"
       id="path1450-8-5-4-7-5-9"
       cx="171.6008"
       cy="-129.27591"
       r="1.5"
       transform="rotate(90)" />
    <circle
       style="display:inline;fill:none;stroke:#000000;stroke-width:0.2;stroke-linecap:round;stroke-linejoin:round;stroke-miterlimit:4.3;stroke-dasharray:none"
       id="path1450-8-5-4-71-99-4"
       cx="175.79242"
       cy="-129.27591"
       r="1.5"
       transform="rotate(90)" />
    <circle
       style="display:inline;fill:none;stroke:#000000;stroke-width:0.2;stroke-linecap:round;stroke-linejoin:round;stroke-miterlimit:4.3;stroke-dasharray:none"
       id="path1450-8-5-4-9-1-3"
       cx="179.98402"
       cy="-129.27591"
       r="1.5"
       transform="rotate(90)" />
    <circle
       style="display:inline;fill:#000000;stroke:#000000;stroke-width:0.2;stroke-linecap:round;stroke-linejoin:round;stroke-miterlimit:4.3;stroke-dasharray:none"
       id="path1450-8-5-4-1-49-5"
       cx="184.17567"
       cy="-129.27591"
       r="1.5"
       transform="rotate(90)" />
    <g
       inkscape:label="Hershey Text"
       style="display:inline;fill:none;stroke:#000000;stroke-width:0.2;stroke-linecap:round;stroke-linejoin:round;stroke-dasharray:none"
       id="g444-3-2-6"
       transform="translate(-325.29497,-58.969215)">
      <g
         transform="translate(456.573,197.173)"
         id="g443-7-4-2"
         style="stroke-width:0.2;stroke-dasharray:none">
        <path
           d="m 520,97.6 -66,-50.4 -89,-31.4 -88,12.6 -82,44 -63,75.6 -31,79 -9.6,119 9.6,111 41,91 63,69 72,35 82,6 73,-15 50,-32 16,-19"
           style="stroke-width:70.8662;stroke-dasharray:none"
           transform="scale(0.00282222,-0.00282222)"
           id="path439-7-7-9" />
        <path
           d="M 132,22.1 V 652 359 H 532 V 649 22.1"
           style="stroke-width:70.8662;stroke-dasharray:none"
           transform="matrix(0.00282222,0,0,-0.00282222,1.66229,0)"
           id="path440-2-9-9" />
        <path
           d="m 334,22.1 82,12.5 82,53.6 56,84.8 29,111 v 103 l -16,85 -31,70 -51,66 -69,41 -70,13 -59,-10 -67,-25 -62,-54 -48,-91 -15.5,-72 -3.1,-108 12.6,-82 31,-75 45,-59.9 50,-41 54,-18.9 50,-3.1"
           style="stroke-width:70.8662;stroke-dasharray:none"
           transform="matrix(0.00282222,0,0,-0.00282222,3.54753,0)"
           id="path441-6-8-0" />
        <path
           d="M 129,18.9 V 649 h 211 l 51,-16 56,-28 41,-63 v -54 l -9,-60 -38,-53 -47,-29 -76,-18 H 132 312 L 495,18.9"
           style="stroke-width:70.8662;stroke-dasharray:none"
           transform="matrix(0.00282222,0,0,-0.00282222,5.45817,0)"
           id="path442-4-5-8" />
        <path
           d="M 132,31.5 V 646 h 177 l 72,-19 54,-29 37,-37 45,-73 15,-82 v -50 l -3,-66 -9,-76 -25,-53 -45,-66.5 -69,-40.9 -66,-19 -50,-3.1 H 135"
           style="stroke-width:70.8662;stroke-dasharray:none"
           transform="matrix(0.00282222,0,0,-0.00282222,7.09506,0)"
           id="path443-5-4-1" />
      </g>
    </g>
    <g
       id="g19598-9-8-3"
       transform="rotate(-28.125116,68.944368,37.208923)"
       style="display:inline;stroke-width:0.2;stroke-dasharray:none">
      <circle
         cx="103.03783"
         cy="136.52522"
         r="6.2400002"
         id="id_s_Small-0-5-5-4-8-1-1"
         style="fill:none;stroke:#000000;stroke-width:0.2;stroke-miterlimit:4;stroke-dasharray:none"
         transform="rotate(7.122032)" />
      <path
         d="m 85.107228,147.25096 0.06407,-5.2405"
         style="fill:none;stroke:#000000;stroke-width:0.2;stroke-miterlimit:4;stroke-dasharray:none"
         id="path2908-1-4-3-4-8-6-0-1" />
    </g>
    <g
       id="g1-3-5-8"
       transform="translate(-367.62317,-91.246185)"
       style="display:inline;stroke-width:0.2;stroke-dasharray:none">
      <g
         inkscape:label="Hershey Text"
         style="fill:none;stroke:#000000;stroke-width:0.2;stroke-linecap:round;stroke-linejoin:round;stroke-dasharray:none"
         id="g464-3-0">
        <g
           transform="translate(465.592,225.914)"
           id="g463-3-21"
           style="stroke-width:0.2;stroke-dasharray:none">
          <path
             d="m 520,97.6 -66,-50.4 -89,-31.4 -88,12.6 -82,44 -63,75.6 -31,79 -9.6,119 9.6,111 41,91 63,69 72,35 82,6 73,-15 50,-32 16,-19"
             style="stroke-width:75.5906;stroke-dasharray:none"
             transform="scale(0.00264583,-0.00264583)"
             id="path459-8-0" />
          <path
             d="M 132,22.1 V 652 359 H 532 V 649 22.1"
             style="stroke-width:75.5906;stroke-dasharray:none"
             transform="matrix(0.00264583,0,0,-0.00264583,1.55839,0)"
             id="path460-3-5" />
          <path
             d="m 334,22.1 82,12.5 82,53.6 56,84.8 29,111 v 103 l -16,85 -31,70 -51,66 -69,41 -70,13 -59,-10 -67,-25 -62,-54 -48,-91 -15.5,-72 -3.1,-108 12.6,-82 31,-75 45,-59.9 50,-41 54,-18.9 50,-3.1"
             style="stroke-width:75.5906;stroke-dasharray:none"
             transform="matrix(0.00264583,0,0,-0.00264583,3.32581,0)"
             id="path461-7-1" />
          <path
             d="M 129,18.9 V 649 h 211 l 51,-16 56,-28 41,-63 v -54 l -9,-60 -38,-53 -47,-29 -76,-18 H 132 312 L 495,18.9"
             style="stroke-width:75.5906;stroke-dasharray:none"
             transform="matrix(0.00264583,0,0,-0.00264583,5.11704,0)"
             id="path462-9-1" />
          <path
             d="M 132,31.5 V 646 h 177 l 72,-19 54,-29 37,-37 45,-73 15,-82 v -50 l -3,-66 -9,-76 -25,-53 -45,-66.5 -69,-40.9 -66,-19 -50,-3.1 H 135"
             style="stroke-width:75.5906;stroke-dasharray:none"
             transform="matrix(0.00264583,0,0,-0.00264583,6.65162,0)"
             id="path463-3-0" />
        </g>
      </g>
    </g>
    <g
       id="g66-4-8"
       style="display:inline"
       transform="translate(-611.57911,-96.011755)">
      <circle
         style="display:inline;fill:none;stroke:#000000;stroke-width:0.2;stroke-linecap:round;stroke-linejoin:round;stroke-miterlimit:4;stroke-dasharray:none"
         id="path1457-2-1-5-89-5"
         cx="713.69916"
         cy="223.36014"
         r="2.998173"
         inkscape:export-filename="/home/phoracek/code/zlosynth/private/kaseta/text.png"
         inkscape:export-xdpi="899.97046"
         inkscape:export-ydpi="899.97046" />
      <circle
         style="display:inline;fill:none;stroke:#000000;stroke-width:0.2;stroke-linecap:round;stroke-linejoin:round;stroke-miterlimit:4;stroke-dasharray:none"
         id="path1457-2-1-5-9-6-0"
         cx="713.69916"
         cy="223.36014"
         r="1.819446"
         inkscape:export-filename="/home/phoracek/code/zlosynth/private/kaseta/text.png"
         inkscape:export-xdpi="899.97046"
         inkscape:export-ydpi="899.97046" />
    </g>
    <text
       xml:space="preserve"
       style="font-style:normal;font-variant:normal;font-weight:normal;font-stretch:normal;font-size:3.88056px;line-height:1.25;font-family:'Latin Modern Sans';-inkscape-font-specification:'Latin Modern Sans';stroke-width:0.264583"
       x="115.13468"
       y="129.45598"
       id="text5-6-6-6-9"><tspan
         sodipodi:role="line"
         id="tspan5-7-8-1-3"
         style="font-style:normal;font-variant:normal;font-weight:bold;font-stretch:normal;font-size:3.88056px;font-family:'Latin Modern Sans';-inkscape-font-specification:'Latin Modern Sans';stroke-width:0.264583"
         x="115.13468"
         y="129.45598">+</tspan></text>
    <text
       xml:space="preserve"
       style="font-style:normal;font-variant:normal;font-weight:normal;font-stretch:normal;font-size:3.88056px;line-height:1.25;font-family:'Latin Modern Sans';-inkscape-font-specification:'Latin Modern Sans';stroke-width:0.264583"
       x="82.672218"
       y="129.73117"
       id="text5-6-6-6-3-3"><tspan
         sodipodi:role="line"
         id="tspan5-7-8-1-1-8"
         style="font-style:normal;font-variant:normal;font-weight:bold;font-stretch:normal;font-size:3.88056px;font-family:'Latin Modern Sans';-inkscape-font-specification:'Latin Modern Sans';stroke-width:0.264583"
         x="82.672218"
         y="129.73117">OR</tspan></text>
    <g
       id="g27"
       transform="translate(-304.37199,130.36991)">
      <g
         inkscape:label="Hershey Text"
         style="display:inline;fill:none;stroke:#000000;stroke-width:0.2;stroke-linecap:round;stroke-linejoin:round;stroke-dasharray:none"
         id="g444-3-2"
         transform="translate(-90.319539,-188.37243)">
        <g
           transform="translate(456.573,197.173)"
           id="g443-7-4"
           style="stroke-width:0.2;stroke-dasharray:none">
          <path
             d="m 520,97.6 -66,-50.4 -89,-31.4 -88,12.6 -82,44 -63,75.6 -31,79 -9.6,119 9.6,111 41,91 63,69 72,35 82,6 73,-15 50,-32 16,-19"
             style="stroke-width:70.8662;stroke-dasharray:none"
             transform="scale(0.00282222,-0.00282222)"
             id="path439-7-7" />
          <path
             d="M 132,22.1 V 652 359 H 532 V 649 22.1"
             style="stroke-width:70.8662;stroke-dasharray:none"
             transform="matrix(0.00282222,0,0,-0.00282222,1.66229,0)"
             id="path440-2-9" />
          <path
             d="m 334,22.1 82,12.5 82,53.6 56,84.8 29,111 v 103 l -16,85 -31,70 -51,66 -69,41 -70,13 -59,-10 -67,-25 -62,-54 -48,-91 -15.5,-72 -3.1,-108 12.6,-82 31,-75 45,-59.9 50,-41 54,-18.9 50,-3.1"
             style="stroke-width:70.8662;stroke-dasharray:none"
             transform="matrix(0.00282222,0,0,-0.00282222,3.54753,0)"
             id="path441-6-8" />
          <path
             d="M 129,18.9 V 649 h 211 l 51,-16 56,-28 41,-63 v -54 l -9,-60 -38,-53 -47,-29 -76,-18 H 132 312 L 495,18.9"
             style="stroke-width:70.8662;stroke-dasharray:none"
             transform="matrix(0.00282222,0,0,-0.00282222,5.45817,0)"
             id="path442-4-5" />
          <path
             d="M 132,31.5 V 646 h 177 l 72,-19 54,-29 37,-37 45,-73 15,-82 v -50 l -3,-66 -9,-76 -25,-53 -45,-66.5 -69,-40.9 -66,-19 -50,-3.1 H 135"
             style="stroke-width:70.8662;stroke-dasharray:none"
             transform="matrix(0.00282222,0,0,-0.00282222,7.09506,0)"
             id="path443-5-4" />
        </g>
      </g>
      <g
         id="g19598-9-8"
         transform="rotate(-28.125116,-71.870086,-496.52793)"
         style="display:inline;stroke-width:0.2;stroke-dasharray:none">
        <circle
           cx="103.03783"
           cy="136.52522"
           r="6.2400002"
           id="id_s_Small-0-5-5-4-8-1"
           style="fill:none;stroke:#000000;stroke-width:0.2;stroke-miterlimit:4;stroke-dasharray:none"
           transform="rotate(7.122032)" />
        <path
           d="m 85.107228,147.25096 0.06407,-5.2405"
           style="fill:none;stroke:#000000;stroke-width:0.2;stroke-miterlimit:4;stroke-dasharray:none"
           id="path2908-1-4-3-4-8-6-0" />
      </g>
      <text
         xml:space="preserve"
         style="font-size:3.88056px;line-height:1.25;font-family:sans-serif;stroke-width:0.264583"
         x="370.74988"
         y="-17.345558"
         id="text23-0"><tspan
           sodipodi:role="line"
           style="font-style:normal;font-variant:normal;font-weight:bold;font-stretch:normal;font-size:3.88056px;font-family:'Latin Modern Sans';-inkscape-font-specification:'Latin Modern Sans';text-align:center;text-anchor:middle;stroke-width:0.264583"
           x="370.74988"
           y="-17.345558"
           id="tspan24-9">chord</tspan><tspan
           sodipodi:role="line"
           style="font-style:normal;font-variant:normal;font-weight:bold;font-stretch:normal;font-size:3.88056px;font-family:'Latin Modern Sans';-inkscape-font-specification:'Latin Modern Sans';text-align:center;text-anchor:middle;stroke-width:0.264583"
           x="370.74988"
           y="-12.412882"
           id="tspan25">select</tspan></text>
    </g>
    <text
       xml:space="preserve"
       style="font-size:3.88056px;line-height:1.25;font-family:sans-serif;stroke-width:0.264583"
       x="102.12003"
       y="113.40513"
       id="text23-0-6"><tspan
         sodipodi:role="line"
         style="font-style:normal;font-variant:normal;font-weight:bold;font-stretch:normal;font-size:3.88056px;font-family:'Latin Modern Sans';-inkscape-font-specification:'Latin Modern Sans';text-align:center;text-anchor:middle;stroke-width:0.264583"
         x="102.12003"
         y="113.40513"
         id="tspan24-9-4">chord</tspan><tspan
         sodipodi:role="line"
         style="font-style:normal;font-variant:normal;font-weight:bold;font-stretch:normal;font-size:3.88056px;font-family:'Latin Modern Sans';-inkscape-font-specification:'Latin Modern Sans';text-align:center;text-anchor:middle;stroke-width:0.264583"
         x="102.12003"
         y="118.33781"
         id="tspan25-0">select</tspan></text>
    <text
       xml:space="preserve"
       style="font-size:3.88056px;line-height:1.25;font-family:sans-serif;stroke-width:0.264583"
       x="135.10294"
       y="118.55764"
       id="text23-0-6-2"><tspan
         sodipodi:role="line"
         style="font-style:normal;font-variant:normal;font-weight:bold;font-stretch:normal;font-size:3.88056px;font-family:'Latin Modern Sans';-inkscape-font-specification:'Latin Modern Sans';text-align:center;text-anchor:middle;stroke-width:0.264583"
         x="135.10294"
         y="118.55764"
         id="tspan25-0-9">CV offset</tspan></text>
    <text
       xml:space="preserve"
       style="font-size:3.88056px;line-height:1.25;font-family:sans-serif;stroke-width:0.264583"
       x="105.41239"
       y="185.29718"
       id="text23-0-6-2-5"><tspan
         sodipodi:role="line"
         style="font-style:normal;font-variant:normal;font-weight:bold;font-stretch:normal;font-size:3.88056px;font-family:'Latin Modern Sans';-inkscape-font-specification:'Latin Modern Sans';text-align:center;text-anchor:middle;stroke-width:0.264583"
         x="105.41239"
         y="185.29718"
         id="tspan25-0-9-8">root</tspan></text>
    <text
       xml:space="preserve"
       style="font-size:3.88056px;line-height:1.25;font-family:sans-serif;stroke-width:0.264583"
       x="105.29404"
       y="181.13464"
       id="text23-0-6-2-5-8"><tspan
         sodipodi:role="line"
         style="font-style:normal;font-variant:normal;font-weight:bold;font-stretch:normal;font-size:3.88056px;font-family:'Latin Modern Sans';-inkscape-font-specification:'Latin Modern Sans';text-align:center;text-anchor:middle;stroke-width:0.264583"
         x="105.29404"
         y="181.13464"
         id="tspan25-0-9-8-0">first</tspan></text>
    <text
       xml:space="preserve"
       style="font-size:3.88056px;line-height:1.25;font-family:sans-serif;stroke-width:0.264583"
       x="107.83195"
       y="176.97214"
       id="text23-0-6-2-5-8-6"><tspan
         sodipodi:role="line"
         style="font-style:normal;font-variant:normal;font-weight:bold;font-stretch:normal;font-size:3.88056px;font-family:'Latin Modern Sans';-inkscape-font-specification:'Latin Modern Sans';text-align:center;text-anchor:middle;stroke-width:0.264583"
         x="107.83195"
         y="176.97214"
         id="tspan25-0-9-8-0-1">second</tspan></text>
    <text
       xml:space="preserve"
       style="font-size:3.88056px;line-height:1.25;font-family:sans-serif;stroke-width:0.264583"
       x="106.05076"
       y="172.80962"
       id="text23-0-6-2-5-8-6-2"><tspan
         sodipodi:role="line"
         style="font-style:normal;font-variant:normal;font-weight:bold;font-stretch:normal;font-size:3.88056px;font-family:'Latin Modern Sans';-inkscape-font-specification:'Latin Modern Sans';text-align:center;text-anchor:middle;stroke-width:0.264583"
         x="106.05076"
         y="172.80962"
         id="tspan25-0-9-8-0-1-2">third</tspan></text>
    <text
       xml:space="preserve"
       style="font-size:3.88056px;line-height:1.25;font-family:sans-serif;stroke-width:0.264583"
       x="107.23435"
       y="168.64709"
       id="text23-0-6-2-5-8-6-29"><tspan
         sodipodi:role="line"
         style="font-style:normal;font-variant:normal;font-weight:bold;font-stretch:normal;font-size:3.88056px;font-family:'Latin Modern Sans';-inkscape-font-specification:'Latin Modern Sans';text-align:center;text-anchor:middle;stroke-width:0.264583"
         x="107.23435"
         y="168.64709"
         id="tspan25-0-9-8-0-1-0">fourth</tspan></text>
    <text
       xml:space="preserve"
       style="font-size:3.88056px;line-height:1.25;font-family:sans-serif;stroke-width:0.264583"
       x="105.49393"
       y="164.48457"
       id="text23-0-6-2-5-8-6-8"><tspan
         sodipodi:role="line"
         style="font-style:normal;font-variant:normal;font-weight:bold;font-stretch:normal;font-size:3.88056px;font-family:'Latin Modern Sans';-inkscape-font-specification:'Latin Modern Sans';text-align:center;text-anchor:middle;stroke-width:0.264583"
         x="105.49393"
         y="164.48457"
         id="tspan25-0-9-8-0-1-04">fifth</tspan></text>
    <text
       xml:space="preserve"
       style="font-size:3.88056px;line-height:1.25;font-family:sans-serif;stroke-width:0.264583"
       x="105.98673"
       y="160.32205"
       id="text23-0-6-2-5-8-6-9"><tspan
         sodipodi:role="line"
         style="font-style:normal;font-variant:normal;font-weight:bold;font-stretch:normal;font-size:3.88056px;font-family:'Latin Modern Sans';-inkscape-font-specification:'Latin Modern Sans';text-align:center;text-anchor:middle;stroke-width:0.264583"
         x="105.98673"
         y="160.32205"
         id="tspan25-0-9-8-0-1-6">sixth</tspan></text>
    <text
       xml:space="preserve"
       style="font-size:3.88056px;line-height:1.25;font-family:sans-serif;stroke-width:0.264583"
       x="125.31113"
       y="134.68448"
       id="text23-2-2"><tspan
         sodipodi:role="line"
         style="font-style:normal;font-variant:normal;font-weight:bold;font-stretch:normal;font-size:3.88056px;font-family:'Latin Modern Sans';-inkscape-font-specification:'Latin Modern Sans';text-align:center;text-anchor:middle;stroke-width:0.264583"
         x="125.31113"
         y="134.68448"
         id="tspan24-8-6">-10V</tspan></text>
    <text
       xml:space="preserve"
       style="font-size:3.88056px;line-height:1.25;font-family:sans-serif;stroke-width:0.264583"
       x="145.8309"
       y="134.68448"
       id="text23-2-2-9"><tspan
         sodipodi:role="line"
         style="font-style:normal;font-variant:normal;font-weight:bold;font-stretch:normal;font-size:3.88056px;font-family:'Latin Modern Sans';-inkscape-font-specification:'Latin Modern Sans';text-align:center;text-anchor:middle;stroke-width:0.264583"
         x="145.8309"
         y="134.68448"
         id="tspan24-8-6-8">+10V</tspan></text>
    <g
       id="g26"
       transform="translate(-304.72709,130.36991)">
      <g
         id="g63-7"
         transform="translate(-340.90924,-184.05614)"
         style="display:inline;stroke-width:0.2;stroke-dasharray:none">
        <ellipse
           cx="-641.63531"
           cy="389.36786"
           id="id_s_Small-0-5-7-2-0-49-1-8"
           style="display:inline;fill:none;stroke:#000000;stroke-width:0.200009;stroke-miterlimit:4;stroke-dasharray:none"
           transform="matrix(-0.65827968,-0.75277345,0.7436701,-0.66854677,0,0)"
           rx="2.8406663"
           ry="2.8464367" />
        <path
           d="m 711.7381,223.0414 -1.59107,1.78913"
           style="display:inline;fill:none;stroke:#000000;stroke-width:0.2;stroke-miterlimit:4;stroke-dasharray:none"
           id="path2908-1-4-3-43-8-8-5-2-60" />
      </g>
      <g
         inkscape:label="Hershey Text"
         style="display:inline;fill:none;stroke:#000000;stroke-width:0.2;stroke-linecap:round;stroke-linejoin:round;stroke-dasharray:none"
         id="g448-5-0"
         transform="translate(-87.988165,-157.2186)">
        <g
           transform="translate(456.308,203.787)"
           id="g447-1-6"
           style="stroke-width:0.2;stroke-dasharray:none">
          <path
             d="m 78.8,107 53.2,-44 51,-25.2 63,-12.6 72,-3.1 79,31.5 53,47.4 19,63 -3,56 -34,57 -73,47 -129,57 -72,47 -38,51 -3,63 25,66 72,44 70,10 66,-7 50,-25 47,-35"
             style="stroke-width:70.8662;stroke-dasharray:none"
             transform="scale(0.00282222,-0.00282222)"
             id="path444-0-4" />
          <path
             d="M 132,18.9 V 652"
             style="stroke-width:70.8662;stroke-dasharray:none"
             transform="matrix(0.00282222,0,0,-0.00282222,1.53811,0)"
             id="path445-3-3" />
          <path
             d="M 101,649 H 479 L 78.8,28.4 H 491"
             style="stroke-width:70.8662;stroke-dasharray:none"
             transform="matrix(0.00282222,0,0,-0.00282222,2.29446,0)"
             id="path446-7-7" />
          <path
             d="M 466,31.5 H 132 V 356 H 410 132 v 287 h 322"
             style="stroke-width:70.8662;stroke-dasharray:none"
             transform="matrix(0.00282222,0,0,-0.00282222,3.87773,0)"
             id="path447-8-5" />
        </g>
      </g>
      <text
         xml:space="preserve"
         style="font-size:3.88056px;line-height:1.25;font-family:sans-serif;stroke-width:0.264583"
         x="371.02939"
         y="27.143913"
         id="text23"><tspan
           sodipodi:role="line"
           id="tspan23"
           style="font-style:normal;font-variant:normal;font-weight:bold;font-stretch:normal;font-size:3.88056px;font-family:'Latin Modern Sans';-inkscape-font-specification:'Latin Modern Sans';text-align:center;text-anchor:middle;stroke-width:0.264583"
           x="371.02939"
           y="27.143913">notes in</tspan><tspan
           sodipodi:role="line"
           style="font-style:normal;font-variant:normal;font-weight:bold;font-stretch:normal;font-size:3.88056px;font-family:'Latin Modern Sans';-inkscape-font-specification:'Latin Modern Sans';text-align:center;text-anchor:middle;stroke-width:0.264583"
           x="371.02939"
           y="32.076588"
           id="tspan24">a chord</tspan></text>
      <text
         xml:space="preserve"
         style="font-size:3.88056px;line-height:1.25;font-family:sans-serif;stroke-width:0.264583"
         x="364.76599"
         y="42.991104"
         id="text23-2"><tspan
           sodipodi:role="line"
           style="font-style:normal;font-variant:normal;font-weight:bold;font-stretch:normal;font-size:3.88056px;font-family:'Latin Modern Sans';-inkscape-font-specification:'Latin Modern Sans';text-align:center;text-anchor:middle;stroke-width:0.264583"
           x="364.76599"
           y="42.991104"
           id="tspan24-8">1</tspan></text>
      <text
         xml:space="preserve"
         style="font-size:3.88056px;line-height:1.25;font-family:sans-serif;stroke-width:0.264583"
         x="377.23441"
         y="42.905735"
         id="text23-2-4"><tspan
           sodipodi:role="line"
           style="font-style:normal;font-variant:normal;font-weight:bold;font-stretch:normal;font-size:3.88056px;font-family:'Latin Modern Sans';-inkscape-font-specification:'Latin Modern Sans';text-align:center;text-anchor:middle;stroke-width:0.264583"
           x="377.23441"
           y="42.905735"
           id="tspan24-8-7">8</tspan></text>
    </g>
    <text
       xml:space="preserve"
       style="font-size:3.88056px;line-height:1.25;font-family:sans-serif;stroke-width:0.264583"
       x="108.5615"
       y="156.15953"
       id="text23-0-6-2-5-8-6-4"><tspan
         sodipodi:role="line"
         style="font-style:normal;font-variant:normal;font-weight:bold;font-stretch:normal;font-size:3.88056px;font-family:'Latin Modern Sans';-inkscape-font-specification:'Latin Modern Sans';text-align:center;text-anchor:middle;stroke-width:0.264583"
         x="108.5615"
         y="156.15953"
         id="tspan25-0-9-8-0-1-9">seventh</tspan></text>
    <text
       xml:space="preserve"
       style="font-size:3.88056px;line-height:1.25;font-family:sans-serif;stroke-width:0.264583"
       x="141.38669"
       y="170.83022"
       id="text23-0-6-2-5-8-6-4-1"><tspan
         sodipodi:role="line"
         style="font-style:normal;font-variant:normal;font-weight:bold;font-stretch:normal;font-size:3.88056px;font-family:'Latin Modern Sans';-inkscape-font-specification:'Latin Modern Sans';text-align:center;text-anchor:middle;stroke-width:0.264583"
         x="141.38669"
         y="170.83022"
         id="tspan25-0-9-8-0-1-9-4">7th sus4</tspan></text>
  </g>
</svg>
