<?xml version="1.0" encoding="UTF-8" standalone="no"?>
<!-- Created with Inkscape (http://www.inkscape.org/) -->

<svg
   width="57.606625mm"
   height="22.670181mm"
   viewBox="0 0 57.606625 22.670181"
   version="1.1"
   id="svg1"
   inkscape:version="1.4 (e7c3feb100, 2024-10-09)"
   sodipodi:docname="diagram-chord-cv.svg"
   xmlns:inkscape="http://www.inkscape.org/namespaces/inkscape"
   xmlns:sodipodi="http://sodipodi.sourceforge.net/DTD/sodipodi-0.dtd"
   xmlns="http://www.w3.org/2000/svg"
   xmlns:svg="http://www.w3.org/2000/svg">
  <sodipodi:namedview
     id="namedview1"
     pagecolor="#ffffff"
     bordercolor="#666666"
     borderopacity="1.0"
     inkscape:showpageshadow="2"
     inkscape:pageopacity="0.0"
     inkscape:pagecheckerboard="0"
     inkscape:deskcolor="#d1d1d1"
     inkscape:document-units="mm"
     inkscape:zoom="2.8284271"
     inkscape:cx="63.286057"
     inkscape:cy="38.00699"
     inkscape:window-width="1916"
     inkscape:window-height="1029"
     inkscape:window-x="0"
     inkscape:window-y="49"
     inkscape:window-maximized="1"
     inkscape:current-layer="g11" />
  <defs
     id="defs1" />
  <g
     inkscape:label="Layer 1"
     inkscape:groupmode="layer"
     id="layer1"
     transform="translate(-92.209617,-115.58901)">
    <g
       inkscape:label="Hershey Text"
       style="display:inline;fill:none;stroke:#000000;stroke-width:0.2;stroke-linecap:round;stroke-linejoin:round;stroke-dasharray:none"
       id="g444-3-2-6"
       transform="translate(-325.29497,-58.969215)">
      <g
         transform="translate(456.573,197.173)"
         id="g443-7-4-2"
         style="stroke-width:0.2;stroke-dasharray:none">
        <path
           d="m 520,97.6 -66,-50.4 -89,-31.4 -88,12.6 -82,44 -63,75.6 -31,79 -9.6,119 9.6,111 41,91 63,69 72,35 82,6 73,-15 50,-32 16,-19"
           style="stroke-width:70.8662;stroke-dasharray:none"
           transform="scale(0.00282222,-0.00282222)"
           id="path439-7-7-9" />
        <path
           d="M 132,22.1 V 652 359 H 532 V 649 22.1"
           style="stroke-width:70.8662;stroke-dasharray:none"
           transform="matrix(0.00282222,0,0,-0.00282222,1.66229,0)"
           id="path440-2-9-9" />
        <path
           d="m 334,22.1 82,12.5 82,53.6 56,84.8 29,111 v 103 l -16,85 -31,70 -51,66 -69,41 -70,13 -59,-10 -67,-25 -62,-54 -48,-91 -15.5,-72 -3.1,-108 12.6,-82 31,-75 45,-59.9 50,-41 54,-18.9 50,-3.1"
           style="stroke-width:70.8662;stroke-dasharray:none"
           transform="matrix(0.00282222,0,0,-0.00282222,3.54753,0)"
           id="path441-6-8-0" />
        <path
           d="M 129,18.9 V 649 h 211 l 51,-16 56,-28 41,-63 v -54 l -9,-60 -38,-53 -47,-29 -76,-18 H 132 312 L 495,18.9"
           style="stroke-width:70.8662;stroke-dasharray:none"
           transform="matrix(0.00282222,0,0,-0.00282222,5.45817,0)"
           id="path442-4-5-8" />
        <path
           d="M 132,31.5 V 646 h 177 l 72,-19 54,-29 37,-37 45,-73 15,-82 v -50 l -3,-66 -9,-76 -25,-53 -45,-66.5 -69,-40.9 -66,-19 -50,-3.1 H 135"
           style="stroke-width:70.8662;stroke-dasharray:none"
           transform="matrix(0.00282222,0,0,-0.00282222,7.09506,0)"
           id="path443-5-4-1" />
      </g>
    </g>
    <g
       id="g19598-9-8-3"
       transform="rotate(-28.125116,68.944368,37.208923)"
       style="display:inline;stroke-width:0.2;stroke-dasharray:none">
      <circle
         cx="103.03783"
         cy="136.52522"
         r="6.2400002"
         id="id_s_Small-0-5-5-4-8-1-1"
         style="fill:none;stroke:#000000;stroke-width:0.2;stroke-miterlimit:4;stroke-dasharray:none"
         transform="rotate(7.122032)" />
      <path
         d="m 85.107228,147.25096 0.06407,-5.2405"
         style="fill:none;stroke:#000000;stroke-width:0.2;stroke-miterlimit:4;stroke-dasharray:none"
         id="path2908-1-4-3-4-8-6-0-1" />
    </g>
    <g
       id="g1-3-5-8"
       transform="translate(-367.62317,-91.246185)"
       style="display:inline;stroke-width:0.2;stroke-dasharray:none">
      <g
         inkscape:label="Hershey Text"
         style="fill:none;stroke:#000000;stroke-width:0.2;stroke-linecap:round;stroke-linejoin:round;stroke-dasharray:none"
         id="g464-3-0">
        <g
           transform="translate(465.592,225.914)"
           id="g463-3-21"
           style="stroke-width:0.2;stroke-dasharray:none">
          <path
             d="m 520,97.6 -66,-50.4 -89,-31.4 -88,12.6 -82,44 -63,75.6 -31,79 -9.6,119 9.6,111 41,91 63,69 72,35 82,6 73,-15 50,-32 16,-19"
             style="stroke-width:75.5906;stroke-dasharray:none"
             transform="scale(0.00264583,-0.00264583)"
             id="path459-8-0" />
          <path
             d="M 132,22.1 V 652 359 H 532 V 649 22.1"
             style="stroke-width:75.5906;stroke-dasharray:none"
             transform="matrix(0.00264583,0,0,-0.00264583,1.55839,0)"
             id="path460-3-5" />
          <path
             d="m 334,22.1 82,12.5 82,53.6 56,84.8 29,111 v 103 l -16,85 -31,70 -51,66 -69,41 -70,13 -59,-10 -67,-25 -62,-54 -48,-91 -15.5,-72 -3.1,-108 12.6,-82 31,-75 45,-59.9 50,-41 54,-18.9 50,-3.1"
             style="stroke-width:75.5906;stroke-dasharray:none"
             transform="matrix(0.00264583,0,0,-0.00264583,3.32581,0)"
             id="path461-7-1" />
          <path
             d="M 129,18.9 V 649 h 211 l 51,-16 56,-28 41,-63 v -54 l -9,-60 -38,-53 -47,-29 -76,-18 H 132 312 L 495,18.9"
             style="stroke-width:75.5906;stroke-dasharray:none"
             transform="matrix(0.00264583,0,0,-0.00264583,5.11704,0)"
             id="path462-9-1" />
          <path
             d="M 132,31.5 V 646 h 177 l 72,-19 54,-29 37,-37 45,-73 15,-82 v -50 l -3,-66 -9,-76 -25,-53 -45,-66.5 -69,-40.9 -66,-19 -50,-3.1 H 135"
             style="stroke-width:75.5906;stroke-dasharray:none"
             transform="matrix(0.00264583,0,0,-0.00264583,6.65162,0)"
             id="path463-3-0" />
        </g>
      </g>
    </g>
    <g
       id="g66-4-8"
       style="display:inline"
       transform="translate(-611.57911,-96.011755)">
      <circle
         style="display:inline;fill:none;stroke:#000000;stroke-width:0.2;stroke-linecap:round;stroke-linejoin:round;stroke-miterlimit:4;stroke-dasharray:none"
         id="path1457-2-1-5-89-5"
         cx="713.69916"
         cy="223.36014"
         r="2.998173"
         inkscape:export-filename="/home/phoracek/code/zlosynth/private/kaseta/text.png"
         inkscape:export-xdpi="899.97046"
         inkscape:export-ydpi="899.97046" />
      <circle
         style="display:inline;fill:none;stroke:#000000;stroke-width:0.2;stroke-linecap:round;stroke-linejoin:round;stroke-miterlimit:4;stroke-dasharray:none"
         id="path1457-2-1-5-9-6-0"
         cx="713.69916"
         cy="223.36014"
         r="1.819446"
         inkscape:export-filename="/home/phoracek/code/zlosynth/private/kaseta/text.png"
         inkscape:export-xdpi="899.97046"
         inkscape:export-ydpi="899.97046" />
    </g>
    <text
       xml:space="preserve"
       style="font-style:normal;font-variant:normal;font-weight:normal;font-stretch:normal;font-size:3.88056px;line-height:1.25;font-family:'Latin Modern Sans';-inkscape-font-specification:'Latin Modern Sans';stroke-width:0.264583"
       x="115.13468"
       y="129.45598"
       id="text5-6-6-6-9"><tspan
         sodipodi:role="line"
         id="tspan5-7-8-1-3"
         style="font-style:normal;font-variant:normal;font-weight:bold;font-stretch:normal;font-size:3.88056px;font-family:'Latin Modern Sans';-inkscape-font-specification:'Latin Modern Sans';stroke-width:0.264583"
         x="115.13468"
         y="129.45598">+</tspan></text>
    <text
       xml:space="preserve"
       style="font-size:3.88056px;line-height:1.25;font-family:sans-serif;stroke-width:0.264583"
       x="135.10294"
       y="118.55764"
       id="text23-0-6-2"><tspan
         sodipodi:role="line"
         style="font-style:normal;font-variant:normal;font-weight:bold;font-stretch:normal;font-size:3.88056px;font-family:'Latin Modern Sans';-inkscape-font-specification:'Latin Modern Sans';text-align:center;text-anchor:middle;stroke-width:0.264583"
         x="135.10294"
         y="118.55764"
         id="tspan25-0-9">CV offset</tspan></text>
    <text
       xml:space="preserve"
       style="font-size:3.88056px;line-height:1.25;font-family:sans-serif;stroke-width:0.264583"
       x="125.31113"
       y="134.68448"
       id="text23-2-2"><tspan
         sodipodi:role="line"
         style="font-style:normal;font-variant:normal;font-weight:bold;font-stretch:normal;font-size:3.88056px;font-family:'Latin Modern Sans';-inkscape-font-specification:'Latin Modern Sans';text-align:center;text-anchor:middle;stroke-width:0.264583"
         x="125.31113"
         y="134.68448"
         id="tspan24-8-6">-5 V</tspan></text>
    <text
       xml:space="preserve"
       style="font-size:3.88056px;line-height:1.25;font-family:sans-serif;stroke-width:0.264583"
       x="145.8309"
       y="134.68448"
       id="text23-2-2-9"><tspan
         sodipodi:role="line"
         style="font-style:normal;font-variant:normal;font-weight:bold;font-stretch:normal;font-size:3.88056px;font-family:'Latin Modern Sans';-inkscape-font-specification:'Latin Modern Sans';text-align:center;text-anchor:middle;stroke-width:0.264583"
         x="145.8309"
         y="134.68448"
         id="tspan24-8-6-8">+5 V</tspan></text>
    <g
       id="g11"
       transform="translate(-312.83411,-81.349051)">
      <text
         xml:space="preserve"
         style="font-size:3.88056px;line-height:1.25;font-family:sans-serif;stroke-width:0.264583"
         x="414.89984"
         y="194.81775"
         id="text5-6-2-1"><tspan
           sodipodi:role="line"
           style="font-style:normal;font-variant:normal;font-weight:bold;font-stretch:normal;font-size:3.88056px;font-family:'Latin Modern Sans';-inkscape-font-specification:'Latin Modern Sans';text-align:center;text-anchor:middle;stroke-width:0.264583"
           x="414.89984"
           y="194.81775"
           id="tspan9-7" /></text>
      <text
         xml:space="preserve"
         style="font-style:normal;font-variant:normal;font-weight:normal;font-stretch:normal;font-size:3.88056px;line-height:1.25;font-family:'Latin Modern Sans';-inkscape-font-specification:'Latin Modern Sans';stroke-width:0.264583"
         x="414.35513"
         y="203.6776"
         id="text5-6-6-3-2-4"><tspan
           sodipodi:role="line"
           style="font-style:normal;font-variant:normal;font-weight:bold;font-stretch:normal;font-size:3.88056px;font-family:'Latin Modern Sans';-inkscape-font-specification:'Latin Modern Sans';text-align:center;text-anchor:middle;stroke-width:0.264583"
           x="414.35513"
           y="203.6776"
           id="tspan7">-5 V to 5 V</tspan></text>
    </g>
  </g>
</svg>
